<svg xmlns="http://www.w3.org/2000/svg" viewBox="758.5 1466.2 37.5 37.5"><defs><style>.a{fill:#0070d3;}.a,.b{fill-rule:evenodd;}.b{fill:#fff;}</style></defs><g transform="translate(96 1334)"><path class="a" d="M662.6,132.2H700v37.5H662.6V132.2Z"/><path class="b" d="M669.8,158.3v-5.9H676l.7.9.7-.9H700v5.5a2.638,2.638,0,0,1-1.3.4H686.2l-.8-.9v.9H683v-1.6a2.147,2.147,0,0,1-1.1.2h-.8v1.4h-3.7l-.7-.9-.7.9Z"/><path class="b" d="M662.6,148l1.4-3.3h2.4l.8,1.8v-1.8h3l.5,1.3.5-1.3h13.5v.7a2.831,2.831,0,0,1,1.9-.7H691l.8,1.8v-1.8h2.5l.7,1v-1h2.5v5.9H695l-.7-1v1h-3.7l-.4-.9h-1l-.4.9h-2.5a2.632,2.632,0,0,1-1.7-.7v.7h-3.8l-.8-.9v.9H666l-.4-.9h-1l-.4.9h-1.7V148Z"/><path class="a" d="M664.5,145.4l-1.9,4.4h1.2l.3-.9h2l.3.9h1.3l-1.9-4.4Zm.7,1.1.6,1.5h-1.2l.6-1.5Z"/><path class="a" d="M667.9,149.9v-4.5l1.8.1,1,2.8,1-2.9h1.7v4.5h-1.1v-3.3l-1.2,3.3h-.9l-1.2-3.3v3.3Z"/><path class="a" d="M674.2,149.9v-4.5h3.6v1h-2.5v.8h2.4v.9h-2.4v.8h2.5v1Z"/><path class="a" d="M678.4,145.4v4.4h1.1v-1.6h.5l1.3,1.6h1.3l-1.4-1.6a1.412,1.412,0,0,0,1.2-1.4,1.391,1.391,0,0,0-1.5-1.4Zm1.1,1h1.3a.472.472,0,0,1,.5.5.536.536,0,0,1-.5.5h-1.3v-1Z"/><path class="a" d="M684,149.9h-1.2v-4.5H684Z"/><path class="a" d="M686.6,149.9h-.2c-1.2,0-1.9-.9-1.9-2.2a2,2,0,0,1,2.2-2.2h1.2v1h-1.3c-.6,0-1,.5-1,1.2a1.059,1.059,0,0,0,1.2,1.2h.3l-.5,1Z"/><path class="a" d="M689,145.4l-1.9,4.4h1.2l.3-.9h2l.3.9h1.3l-1.9-4.4Zm.7,1.1.6,1.5h-1.2l.6-1.5Z"/><path class="a" d="M692.5,149.9v-4.5h1.4l1.8,2.8v-2.8h1.1v4.5h-1.4l-1.8-2.9v2.9Z"/><path class="a" d="M670.6,157.6v-4.4h3.6v.9h-2.5v.8h2.4v.9h-2.4v.8h2.5v1Z"/><path class="a" d="M688.2,157.6v-4.4h3.6v.9h-2.5v.8h2.4v.9h-2.4v.8h2.5v1Z"/><path class="a" d="M674.3,157.6l1.8-2.2-1.8-2.2h1.3l1.1,1.3,1.1-1.3h1.3l-1.7,2.2,1.7,2.2h-1.4l-1-1.4-1,1.4Z"/><path class="a" d="M679.2,153.2v4.4h1.1v-1.4h1.2c1,0,1.7-.5,1.7-1.5a1.5,1.5,0,0,0-1.6-1.5Zm1.2.9h1.2a.5.5,0,0,1,0,1h-1.2v-1Z"/><path class="a" d="M683.7,153.2v4.4h1.1V156h.5l1.3,1.6h1.3l-1.4-1.6a1.412,1.412,0,0,0,1.2-1.4,1.391,1.391,0,0,0-1.5-1.4Zm1.1.9h1.3a.472.472,0,0,1,.5.5.536.536,0,0,1-.5.5h-1.3v-1Z"/><path class="a" d="M692.3,157.6v-1h2.2a.458.458,0,0,0,.5-.4c0-.2-.1-.4-.5-.4h-1a1.162,1.162,0,0,1-1.3-1.3c0-.7.4-1.4,1.7-1.4H696l-.5,1h-1.9c-.4,0-.5.2-.5.4a.366.366,0,0,0,.4.4h1c1,0,1.4.5,1.4,1.3a1.312,1.312,0,0,1-1.4,1.4Z"/><path class="a" d="M696.3,157.6v-1h2.1a.458.458,0,0,0,.5-.4c0-.2-.1-.4-.5-.4h-.9a1.162,1.162,0,0,1-1.3-1.3c0-.7.4-1.4,1.7-1.4H700l-.5,1h-1.8c-.4,0-.5.2-.5.4a.366.366,0,0,0,.4.4h.9c1,0,1.4.5,1.4,1.3a1.312,1.312,0,0,1-1.4,1.4Z"/></g></svg>