<svg xmlns="http://www.w3.org/2000/svg" viewBox="656.4 1476 64.6 19.8"><defs><style>.a{fill:#00529a;}.b{fill:#f4aa00;}</style></defs><g transform="translate(96 1334)"><path class="a" d="M583.1,161.5l3.3-19.1h5.2l-3.3,19.1Z"/><path class="a" d="M607.3,142.8a13.307,13.307,0,0,0-4.7-.8c-5.2,0-8.8,2.6-8.8,6.3,0,2.8,2.6,4.3,4.6,5.2s2.7,1.5,2.7,2.4c0,1.3-1.6,1.9-3.1,1.9a11.014,11.014,0,0,1-4.9-1l-.7-.3-.7,4.3a16.846,16.846,0,0,0,5.8,1c5.5,0,9.1-2.6,9.1-6.6,0-2.2-1.4-3.8-4.4-5.2-1.8-.9-2.9-1.5-2.9-2.4,0-.8.9-1.7,3-1.7a10.077,10.077,0,0,1,3.9.7l.5.2.6-4"/><path class="a" d="M620.7,142.4h-4c-1.3,0-2.2.3-2.7,1.6l-7.8,17.6h5.5s.9-2.4,1.1-2.9h6.7c.2.7.6,2.9.6,2.9H625l-4.3-19.2m-6.4,12.3c.4-1.1,2.1-5.4,2.1-5.4,0,.1.4-1.1.7-1.8l.4,1.7s1,4.6,1.2,5.5Z"/><path class="a" d="M578.7,142.4l-5.1,13.1-.5-2.7a14.73,14.73,0,0,0-7.2-8l4.7,16.8h5.5l8.2-19.1h-5.6"/><path class="b" d="M568.9,142.4h-8.4l-.1.4c6.6,1.6,10.9,5.4,12.7,10l-1.8-8.8a2.259,2.259,0,0,0-2.4-1.6"/></g></svg>