<svg xmlns="http://www.w3.org/2000/svg" viewBox="152.084 576 39.9 40.1"><defs><style>.a{fill:#fff;}</style></defs><g transform="translate(78.684 152.5)"><path class="a" d="M78.3,429.9v-5a1.3,1.3,0,0,1,2.6,0v5a1.324,1.324,0,0,1-1.3,1.3,1.4,1.4,0,0,1-1.3-1.3Zm21.3,1.2a1.324,1.324,0,0,0,1.3-1.3v-5a1.3,1.3,0,0,0-2.6,0v5a1.324,1.324,0,0,0,1.3,1.3Zm13.7,22.5a10,10,0,1,1-10-10,10.029,10.029,0,0,1,10,10Zm-2.5,0a7.5,7.5,0,1,0-7.5,7.5,7.555,7.555,0,0,0,7.5-7.5Zm-27.5-15h-5v5h5Zm-5,12.5h5v-5h-5Zm7.5-7.5h5v-5h-5Zm0,7.5h5v-5h-5Zm-10,2.3V436.1h27.5v5h2.5v-9.8a2.689,2.689,0,0,0-2.7-2.7h-1v1.3a2.5,2.5,0,1,1-5,0v-1.3h-15v1.3a2.5,2.5,0,0,1-5,0v-1.3h-1a2.689,2.689,0,0,0-2.7,2.7v22a2.689,2.689,0,0,0,2.7,2.7H90.9v-2.5H76c-.1.1-.2,0-.2-.1Zm22.5-9.8v-5h-5v5Zm8.8,10h-3.8v-3.7a1.324,1.324,0,0,0-1.3-1.3,1.24,1.24,0,0,0-1.2,1.3v5a1.309,1.309,0,0,0,1.2,1.3h5a1.24,1.24,0,0,0,1.2-1.3,1.164,1.164,0,0,0-1.1-1.3Zm0,0"/></g></svg>