<svg xmlns="http://www.w3.org/2000/svg" viewBox="581.9 1466.1 50.4 39.4"><defs><style>.a{fill:#1c1c1b;}.b{fill:#e20c16;}.c{fill:#ea6008;}.d{fill:#f59e00;}</style></defs><g transform="translate(96 1334)"><path class="a" d="M494.4,167.4a.85.85,0,0,0-.5-.3,1.483,1.483,0,0,0-.7-.1h-.4c-.1,0-.3.1-.4.1-.1.1-.3.1-.4.2a1.38,1.38,0,0,0-.3.4,1.024,1.024,0,0,0-.6-.5,1.884,1.884,0,0,0-.8-.2H490c-.1,0-.2.1-.3.1s-.2.1-.3.2l-.3.3V167h-.9v4.1h.9v-2.3a.9.9,0,0,1,.1-.5c.1-.1.1-.3.2-.3.1-.1.2-.2.3-.2s.3-.1.4-.1a.908.908,0,0,1,.7.3,1.077,1.077,0,0,1,.2.8v2.3h.9v-2.3a.9.9,0,0,1,.1-.5c.1-.1.1-.3.2-.3.1-.1.2-.2.3-.2s.3-.1.4-.1a.908.908,0,0,1,.7.3,1.077,1.077,0,0,1,.2.8v2.3h.9v-2.6a1.7,1.7,0,0,0-.1-.7C494.7,167.7,494.6,167.5,494.4,167.4Z"/><path class="a" d="M499,167.5a1,1,0,0,0-.5-.4,1.7,1.7,0,0,0-1.6,0c-.2.1-.5.3-.7.4a1.612,1.612,0,0,0-.4.7,2.125,2.125,0,0,0,0,1.8,4.348,4.348,0,0,0,.4.7,1.612,1.612,0,0,0,.7.4,1.884,1.884,0,0,0,.8.2,2.354,2.354,0,0,0,.8-.2,2.182,2.182,0,0,0,.5-.4v.5h.9V167H499Zm0,2.1c-.1.2-.1.3-.3.4a1.381,1.381,0,0,1-.4.3.9.9,0,0,1-.5.1.749.749,0,0,1-.5-.1,1.38,1.38,0,0,1-.4-.3.758.758,0,0,1-.2-.4.9.9,0,0,1-.1-.5.749.749,0,0,1,.1-.5c.1-.2.1-.3.2-.4a1.381,1.381,0,0,1,.4-.3.9.9,0,0,1,.5-.1.749.749,0,0,1,.5.1,1.38,1.38,0,0,1,.4.3c.1.1.2.3.3.4a1.3,1.3,0,0,1,0,1Z"/><path class="a" d="M504.1,169.1a2.817,2.817,0,0,0-1.1-.4l-.4-.1h-.3c-.1,0-.2,0-.2-.1a.1.1,0,0,1-.1-.1.349.349,0,0,1-.1-.2.758.758,0,0,1,.2-.4c.1-.1.3-.1.6-.1h.4c.1,0,.2.1.4.1.1,0,.2.1.3.1a.349.349,0,0,1,.2.1l.4-.7a6.891,6.891,0,0,0-.8-.3,2.768,2.768,0,0,0-.9-.1,1.483,1.483,0,0,0-.7.1c-.2.1-.4.1-.5.3-.1.1-.3.3-.3.4a1.083,1.083,0,0,0-.1.6.91.91,0,0,0,.4.8,2.321,2.321,0,0,0,1,.4l.4.1a.764.764,0,0,1,.5.2c.1.1.2.2.2.3a.52.52,0,0,1-.2.4,1.483,1.483,0,0,1-.7.1h-.5c-.1,0-.3-.1-.4-.1s-.2-.1-.3-.1c-.1-.1-.2-.1-.2-.2l-.4.7a2.186,2.186,0,0,0,.5.3c.2.1.3.1.5.2.2,0,.3.1.4.1h.4a1.949,1.949,0,0,0,.8-.1l.6-.3c.2-.1.3-.3.4-.4a.9.9,0,0,0,.1-.5A2.21,2.21,0,0,0,504.1,169.1Z"/><path class="a" d="M512.5,167.5a2.092,2.092,0,0,0-.6-.4,1.7,1.7,0,0,0-1.6,0,1.538,1.538,0,0,0-.6.4,1.612,1.612,0,0,0-.4.7,2.125,2.125,0,0,0,0,1.8,1.532,1.532,0,0,0,1.1,1.1,2.388,2.388,0,0,0,.9.2,2.768,2.768,0,0,0,.9-.1,1.769,1.769,0,0,0,.8-.5l-.4-.6-.6.3a1.268,1.268,0,0,1-.6.1.6.6,0,0,1-.4-.1.758.758,0,0,1-.4-.2l-.3-.3c-.1-.1-.1-.3-.2-.5h3V169a2.769,2.769,0,0,0-.1-.9C512.8,167.9,512.7,167.7,512.5,167.5Zm-2.5,1.2c0-.1.1-.3.1-.4.1-.1.1-.2.2-.3s.2-.2.3-.2.3-.1.4-.1a1.025,1.025,0,0,1,1,1Z"/><path class="a" d="M524.4,167.5a1,1,0,0,0-.5-.4,1.7,1.7,0,0,0-1.6,0c-.2.1-.5.3-.7.4a1.612,1.612,0,0,0-.4.7,2.125,2.125,0,0,0,0,1.8,4.343,4.343,0,0,0,.4.7,1.612,1.612,0,0,0,.7.4,1.884,1.884,0,0,0,.8.2,2.354,2.354,0,0,0,.8-.2,2.181,2.181,0,0,0,.5-.4v.5h.9V167h-.9Zm0,2.1c-.1.2-.1.3-.3.4a1.38,1.38,0,0,1-.4.3.9.9,0,0,1-.5.1.749.749,0,0,1-.5-.1c-.1-.1-.3-.2-.4-.3a.758.758,0,0,1-.2-.4.9.9,0,0,1-.1-.5.75.75,0,0,1,.1-.5c.1-.2.1-.3.2-.4a1.38,1.38,0,0,1,.4-.3.9.9,0,0,1,.5-.1.749.749,0,0,1,.5.1,1.381,1.381,0,0,1,.4.3c.1.1.2.3.3.4a1.3,1.3,0,0,1,0,1Z"/><path class="a" d="M507.9,170.3a.6.6,0,0,1-.4.1h-.3c-.1,0-.1-.1-.2-.1-.1-.1-.1-.1-.1-.2s-.1-.2-.1-.4v-1.8h1.4V167h-1.4v-1.2h-.9V167h-.8v.8h.8v1.8a1.461,1.461,0,0,0,.4,1.2,1.366,1.366,0,0,0,1.1.4,1.483,1.483,0,0,0,.7-.1c.1-.1.3-.1.4-.2l-.3-.8C508.1,170.2,508,170.3,507.9,170.3Z"/><path class="a" d="M516,166.9a1.483,1.483,0,0,0-.7.1,1.2,1.2,0,0,0-.5.5V167H514v4.1h.8v-2.3a.9.9,0,0,1,.1-.5c0-.1.1-.3.2-.3.1-.1.2-.2.3-.2s.3-.1.4-.1h.6l.3-.9c-.1,0-.1,0-.2-.1A.551.551,0,0,1,516,166.9Z"/><path class="a" d="M528.5,166.9a1.483,1.483,0,0,0-.7.1,1.2,1.2,0,0,0-.5.5V167h-.8v4.1h.8v-2.3a.9.9,0,0,1,.1-.5c0-.1.1-.3.2-.3.1-.1.2-.2.3-.2s.3-.1.4-.1h.6l.3-.9c-.1,0-.1,0-.2-.1A.551.551,0,0,1,528.5,166.9Z"/><path class="a" d="M532.7,165.3v2.2a1,1,0,0,0-.5-.4,1.7,1.7,0,0,0-1.6,0c-.2.1-.5.3-.7.4a1.612,1.612,0,0,0-.4.7,2.125,2.125,0,0,0,0,1.8,4.343,4.343,0,0,0,.4.7,1.612,1.612,0,0,0,.7.4,1.884,1.884,0,0,0,.8.2,2.354,2.354,0,0,0,.8-.2,2.181,2.181,0,0,0,.5-.4v.5h.9v-5.8h-.9Zm0,4.3c-.1.2-.1.3-.3.4a1.38,1.38,0,0,1-.4.3.9.9,0,0,1-.5.1.749.749,0,0,1-.5-.1,1.381,1.381,0,0,1-.4-.3.758.758,0,0,1-.2-.4.9.9,0,0,1-.1-.5.75.75,0,0,1,.1-.5c.1-.2.1-.3.2-.4a1.38,1.38,0,0,1,.4-.3.9.9,0,0,1,.5-.1.749.749,0,0,1,.5.1,1.381,1.381,0,0,1,.4.3c.1.1.2.3.3.4a1.3,1.3,0,0,1,0,1Z"/><path class="a" d="M518.2,168.1c.1-.1.3-.2.4-.3a.9.9,0,0,1,.5-.1h0a1.268,1.268,0,0,1,.6.1c.2.1.3.1.4.3l.4-.7c-.2-.1-.3-.2-.5-.3a2.125,2.125,0,0,0-1.8,0,2.616,2.616,0,0,0-1.2,1.2,2.125,2.125,0,0,0,0,1.8,1.793,1.793,0,0,0,.5.7,4.235,4.235,0,0,0,.7.5,2.125,2.125,0,0,0,1.8,0,2.185,2.185,0,0,0,.5-.3l-.4-.7c-.1.1-.3.2-.4.3a1.268,1.268,0,0,1-.6.1h0a.749.749,0,0,1-.5-.1,1.381,1.381,0,0,1-.4-.3c-.1-.1-.2-.3-.3-.4a.9.9,0,0,1-.1-.5.75.75,0,0,1,.1-.5A1.577,1.577,0,0,1,518.2,168.1Z"/><path class="a" d="M535.5,170.5h.2a.1.1,0,0,1,.1.1l.1.1v.4a.1.1,0,0,1-.1.1l-.1.1h-.4a.1.1,0,0,1-.1-.1l-.1-.1v-.4a.1.1,0,0,1,.1-.1l.1-.1Zm0,.8h.1a.1.1,0,0,0,.1-.1.1.1,0,0,1,.1-.1v-.2a.1.1,0,0,0-.1-.1.1.1,0,0,1-.1-.1h-.2a.1.1,0,0,0-.1.1.1.1,0,0,1-.1.1v.2a.1.1,0,0,0,.1.1.1.1,0,0,1,.1.1C535.5,171.2,535.5,171.3,535.5,171.3Zm.1-.5h.1v.2h-.1l.1.1h-.1l-.1-.1h0v.1h-.1v-.4h.2Zm-.1.1h0l.1.1h0a.1.1,0,0,0-.1-.1Z"/><path class="b" d="M505.1,147.7a15.657,15.657,0,0,1,5.9-12.2,15.436,15.436,0,0,0-25.1,12.1,15.578,15.578,0,0,0,15.5,15.5,15.374,15.374,0,0,0,9.6-3.4A14.687,14.687,0,0,1,505.1,147.7Z"/><path class="c" d="M505.1,147.7a15.657,15.657,0,0,0,5.9,12.2,15.564,15.564,0,0,0,0-24.4A15.657,15.657,0,0,0,505.1,147.7Z"/><path class="d" d="M535.1,156.1v-.5h-.2v-.1h.5v.1h-.2v.5Zm1,0v-.4l-.1.3h-.1l-.1-.3v.4h-.1v-.6h.2l.1.4.1-.4h.2v.6Z"/><path class="d" d="M520.6,132.2a15.374,15.374,0,0,0-9.6,3.4,15.564,15.564,0,0,1,0,24.4,15.436,15.436,0,0,0,25.1-12.1A15.685,15.685,0,0,0,520.6,132.2Z"/></g></svg>