<svg xmlns="http://www.w3.org/2000/svg" xmlns:xlink="http://www.w3.org/1999/xlink" viewBox="96 1344.1 278.602 139.302"><defs><style>.a{fill:#00a985;}.b{fill:#fff;}.c{fill:url(#a);}.d{fill:url(#b);}.e{fill:url(#c);}.f{fill:url(#d);}.g{fill:url(#e);}.h{fill:url(#f);}.i{fill:url(#g);}</style><radialGradient id="a" cx="112.176" cy="29.753" r="115.919" gradientUnits="userSpaceOnUse"><stop offset="0" stop-color="#00a0ff"/><stop offset="0.138" stop-color="#007ce4"/><stop offset="0.335" stop-color="#0050c2"/><stop offset="0.525" stop-color="#002da8"/><stop offset="0.704" stop-color="#001495"/><stop offset="0.867" stop-color="#000589"/><stop offset="0.999" stop-color="#000085"/></radialGradient><linearGradient id="b" x1="-0.337" y1="0.306" x2="0.904" y2="0.96" gradientUnits="objectBoundingBox"><stop offset="0" stop-color="#ff6400"/><stop offset="0.541" stop-color="#ff9c1c"/><stop offset="1" stop-color="#ffc832"/></linearGradient><linearGradient id="c" x1="-0.049" y1="0.146" x2="0.425" y2="0.683" gradientUnits="objectBoundingBox"><stop offset="0.001" stop-color="#006400"/><stop offset="0.768" stop-color="#4bc84b"/></linearGradient><linearGradient id="d" x1="-19.658" y1="90.529" x2="-18.894" y2="90.742" gradientUnits="objectBoundingBox"><stop offset="0.14" stop-color="#d21ec8"/><stop offset="0.259" stop-color="#e538c8"/><stop offset="0.385" stop-color="#f44bc8"/><stop offset="0.515" stop-color="#fc56c8"/><stop offset="0.65" stop-color="#ff5ac8"/></linearGradient><linearGradient id="e" x1="0.234" y1="-0.05" x2="0.771" y2="0.504" gradientUnits="objectBoundingBox"><stop offset="0" stop-color="#a0d2ff"/><stop offset="0.181" stop-color="#a5d4ff"/><stop offset="0.402" stop-color="#b4dcff"/><stop offset="0.644" stop-color="#cde7ff"/><stop offset="0.899" stop-color="#eff8ff"/><stop offset="1" stop-color="#fff"/></linearGradient><linearGradient id="f" x1="0.202" y1="0.05" x2="0.753" y2="0.551" xlink:href="#e"/><linearGradient id="g" x1="0.144" y1="0.159" x2="0.5" y2="0.562" xlink:href="#e"/></defs><g transform="translate(96.001 1339.101)"><path class="a" d="M69.3,144.3A69.651,69.651,0,1,1,70,5H209.3a69.651,69.651,0,1,1-.7,139.3Z"/><path class="b" d="M152.1,51c-.5-.2-.9-.3-1.3-.5a8.8,8.8,0,0,1-1-.6,2.178,2.178,0,0,1-.7-.9,2.549,2.549,0,0,1-.2-1.3,2.845,2.845,0,0,1,1.1-2.3,4.479,4.479,0,0,1,3-.9,5.283,5.283,0,0,1,1.3.1c.4.1.8.2,1.1.3a1.794,1.794,0,0,1,.7.5,1.077,1.077,0,0,1,.2.8,1.445,1.445,0,0,1-.2.7,1.205,1.205,0,0,1-.5.5,2.321,2.321,0,0,0-1-.4,5.853,5.853,0,0,0-1.3-.2,2.676,2.676,0,0,0-1.1.2.55.55,0,0,0-.3.5.52.52,0,0,0,.2.4,3.329,3.329,0,0,0,.6.3l.9.3a6.814,6.814,0,0,1,2.4,1.3,2.52,2.52,0,0,1,.8,2.1,2.845,2.845,0,0,1-1.1,2.3,5,5,0,0,1-3.3.9A6.15,6.15,0,0,1,151,55a3.582,3.582,0,0,1-1.1-.4,5.547,5.547,0,0,1-.8-.6,1.217,1.217,0,0,1,0-1.6,2.651,2.651,0,0,1,.6-.5,3.88,3.88,0,0,0,1.1.6,3.339,3.339,0,0,0,1.5.3,1.609,1.609,0,0,0,1.1-.3.864.864,0,0,0,.3-.6.55.55,0,0,0-.3-.5,4.875,4.875,0,0,0-.7-.3Z"/><path class="b" d="M162.4,55.4a4.844,4.844,0,0,1-1.8-.3,7.143,7.143,0,0,1-1.5-.8,5.02,5.02,0,0,1-1-1.4,5.917,5.917,0,0,1-.4-2,3.807,3.807,0,0,1,.4-1.9,3.045,3.045,0,0,1,.9-1.3,5.67,5.67,0,0,1,1.3-.8,3.887,3.887,0,0,1,1.5-.2,4.146,4.146,0,0,1,1.6.3,3.458,3.458,0,0,1,1.2.7,4.44,4.44,0,0,1,.8,1.1,3.194,3.194,0,0,1,.3,1.4,1.222,1.222,0,0,1-.3.9,1.884,1.884,0,0,1-.9.4l-4.1.6a1.387,1.387,0,0,0,.7.8,2.768,2.768,0,0,0,1.3.3,5.067,5.067,0,0,0,1.3-.2,10.375,10.375,0,0,0,1-.4,1,1,0,0,1,.4.5,1.421,1.421,0,0,1,.2.6,1.081,1.081,0,0,1-.7,1.1,5.638,5.638,0,0,1-1.2.4,2.509,2.509,0,0,1-1,.2m-.4-6.6a1.483,1.483,0,0,0-.7.1c-.2.1-.3.2-.5.3a2.186,2.186,0,0,0-.3.5,1.087,1.087,0,0,0-.1.5l2.8-.5c0-.2-.2-.4-.4-.7a1.292,1.292,0,0,0-.8-.2"/><path class="b" d="M171.8,48.9a2.2,2.2,0,0,0-.8.1c-.2.1-.5.2-.6.4a2.092,2.092,0,0,0-.4.6,2.92,2.92,0,0,0-.2.9,2.111,2.111,0,0,0,.6,1.6,2.389,2.389,0,0,0,1.4.5,2.769,2.769,0,0,0,.9-.1,3.33,3.33,0,0,0,.6-.3c.2.2.4.3.5.5a1.445,1.445,0,0,1,.2.7,1.255,1.255,0,0,1-.6,1.1,3.007,3.007,0,0,1-1.8.4,5.822,5.822,0,0,1-1.9-.3,3.917,3.917,0,0,1-2.3-2.3,4.844,4.844,0,0,1-.3-1.8,3.807,3.807,0,0,1,.4-1.9,3.587,3.587,0,0,1,1-1.4,3.923,3.923,0,0,1,1.4-.8,4.671,4.671,0,0,1,1.7-.3,3.007,3.007,0,0,1,1.8.4A1.382,1.382,0,0,1,174,48a1.268,1.268,0,0,1-.1.6c-.1.2-.2.3-.3.5a4.875,4.875,0,0,0-.7-.3,2.232,2.232,0,0,1-1.1.1"/><path class="b" d="M178.2,55.1a4.332,4.332,0,0,1-.5.1c-.2,0-.5.1-.7.1a1.7,1.7,0,0,1-.7-.1.764.764,0,0,1-.5-.2,1.38,1.38,0,0,1-.3-.4,1.483,1.483,0,0,1-.1-.7V48.8a1.483,1.483,0,0,1,.1-.7,1,1,0,0,1,.4-.5,4.348,4.348,0,0,1,.7-.4c.3-.1.5-.2.8-.3a2.92,2.92,0,0,1,.9-.2,3.083,3.083,0,0,1,1-.1,2.768,2.768,0,0,1,1.3.3,1.1,1.1,0,0,1,.5,1,.9.9,0,0,1-.1.5.52.52,0,0,1-.2.4h-.7c-.2,0-.5.1-.7.1s-.4.1-.7.1a.764.764,0,0,0-.5.2Z"/><path class="b" d="M186.1,55.4a5.23,5.23,0,0,1-1.8-.3,7.143,7.143,0,0,1-1.5-.8,5.02,5.02,0,0,1-1-1.4,5.917,5.917,0,0,1-.4-2,3.807,3.807,0,0,1,.4-1.9,3.045,3.045,0,0,1,.9-1.3,5.67,5.67,0,0,1,1.3-.8,3.887,3.887,0,0,1,1.5-.2,4.146,4.146,0,0,1,1.6.3,3.458,3.458,0,0,1,1.2.7,4.44,4.44,0,0,1,.8,1.1,3.194,3.194,0,0,1,.3,1.4,1.222,1.222,0,0,1-.3.9,1.884,1.884,0,0,1-.9.4l-4.1.6a1.387,1.387,0,0,0,.7.8,2.768,2.768,0,0,0,1.3.3,5.067,5.067,0,0,0,1.3-.2,10.375,10.375,0,0,0,1-.4,1,1,0,0,1,.4.5,1.421,1.421,0,0,1,.2.6,1.081,1.081,0,0,1-.7,1.1,5.638,5.638,0,0,1-1.2.4,2.509,2.509,0,0,1-1,.2m-.5-6.6a1.483,1.483,0,0,0-.7.1c-.2.1-.3.2-.5.3a2.186,2.186,0,0,0-.3.5,1.087,1.087,0,0,0-.1.5l2.8-.5c0-.2-.2-.4-.4-.7,0-.1-.4-.2-.8-.2"/><path class="b" d="M193.7,52.3a.6.6,0,0,0,.3.6,1.549,1.549,0,0,0,.8.2h.5c.2,0,.3-.1.5-.1.1.1.2.3.3.4a.9.9,0,0,1,.1.5,1.231,1.231,0,0,1-.5,1,2.5,2.5,0,0,1-1.7.4,2.918,2.918,0,0,1-2.2-.7,2.794,2.794,0,0,1-.8-2.2V45.2a4.332,4.332,0,0,1,.5-.1c.2,0,.5-.1.7-.1a1.609,1.609,0,0,1,1.1.3c.3.2.4.5.4,1.1v1.1h2.2c.1.1.1.3.2.5a1.268,1.268,0,0,1,.1.6,1.222,1.222,0,0,1-.3.9.908.908,0,0,1-.7.3h-1.5v2.5Z"/><path class="b" d="M200.9,46.7a7.772,7.772,0,0,1,1.6.2,3.1,3.1,0,0,1,1.3.6,3.915,3.915,0,0,1,.8,1,2.9,2.9,0,0,1,.3,1.4v3.8a1.445,1.445,0,0,1-.2.7c-.2.2-.4.3-.6.5a6.03,6.03,0,0,1-3,.7,7.772,7.772,0,0,1-1.6-.2,3.337,3.337,0,0,1-1.2-.5,2.559,2.559,0,0,1-1.1-2.1,2.139,2.139,0,0,1,.7-1.8,4.031,4.031,0,0,1,2.1-.8l2.2-.2v-.1a.67.67,0,0,0-.4-.7,3.73,3.73,0,0,0-1.2-.2,4.869,4.869,0,0,0-1.2.1c-.4.1-.8.2-1.1.3a2.181,2.181,0,0,1-.4-.5,1.268,1.268,0,0,1-.1-.6,1.445,1.445,0,0,1,.2-.7c.1-.2.4-.3.6-.4.3-.1.7-.2,1.1-.3a2.537,2.537,0,0,1,1.2-.2m.1,6.6a1.268,1.268,0,0,0,.6-.1.764.764,0,0,0,.5-.2V51.7l-1.2.1a1.884,1.884,0,0,0-.8.2.567.567,0,0,0,0,1,1.222,1.222,0,0,0,.9.3"/><path class="b" d="M209.4,55.1a4.332,4.332,0,0,1-.5.1c-.2,0-.5.1-.7.1a1.7,1.7,0,0,1-.7-.1.764.764,0,0,1-.5-.2,1.38,1.38,0,0,1-.3-.4,1.483,1.483,0,0,1-.1-.7V48.8a1.483,1.483,0,0,1,.1-.7,1,1,0,0,1,.4-.5,4.348,4.348,0,0,1,.7-.4c.3-.1.5-.2.8-.3a2.92,2.92,0,0,1,.9-.2,3.083,3.083,0,0,1,1-.1,2.768,2.768,0,0,1,1.3.3,1.1,1.1,0,0,1,.5,1,.9.9,0,0,1-.1.5.52.52,0,0,1-.2.4h-.7c-.2,0-.5.1-.7.1s-.4.1-.7.1a.764.764,0,0,0-.5.2Z"/><path class="b" d="M215.8,42.6a1.737,1.737,0,0,1,1.2.3.909.909,0,0,1,.4.8,1.445,1.445,0,0,1-.2.7,2.761,2.761,0,0,1-.8.6l-2.1,1.1a1.234,1.234,0,0,1-.8-.4,1.136,1.136,0,0,1-.3-.8.6.6,0,0,1,.1-.4c.1-.1.2-.3.3-.4Zm.4,12.5a4.332,4.332,0,0,1-.5.1c-.2,0-.5.1-.7.1a1.7,1.7,0,0,1-.7-.1.764.764,0,0,1-.5-.2,1.38,1.38,0,0,1-.3-.4,1.483,1.483,0,0,1-.1-.7V47a4.332,4.332,0,0,1,.5-.1c.2,0,.5-.1.7-.1a1.7,1.7,0,0,1,.7.1.764.764,0,0,1,.5.2,1.38,1.38,0,0,1,.3.4,1.483,1.483,0,0,1,.1.7Z"/><path class="b" d="M221.3,46.7a7.772,7.772,0,0,1,1.6.2,3.1,3.1,0,0,1,1.3.6,3.915,3.915,0,0,1,.8,1,2.9,2.9,0,0,1,.3,1.4v3.8a1.445,1.445,0,0,1-.2.7c-.2.2-.4.3-.6.5a6.03,6.03,0,0,1-3,.7,7.772,7.772,0,0,1-1.6-.2,3.337,3.337,0,0,1-1.2-.5,2.559,2.559,0,0,1-1.1-2.1,2.139,2.139,0,0,1,.7-1.8,4.031,4.031,0,0,1,2.1-.8l2.2-.2v-.1a.67.67,0,0,0-.4-.7A3.73,3.73,0,0,0,221,49a4.869,4.869,0,0,0-1.2.1c-.4.1-.8.2-1.1.3a2.181,2.181,0,0,1-.4-.5,1.268,1.268,0,0,1-.1-.6,1.445,1.445,0,0,1,.2-.7c.1-.2.4-.3.6-.4.3-.1.7-.2,1.1-.3a2.537,2.537,0,0,1,1.2-.2m.2,6.6a1.268,1.268,0,0,0,.6-.1.764.764,0,0,0,.5-.2V51.7l-1.2.1a1.884,1.884,0,0,0-.8.2.567.567,0,0,0,0,1,1.078,1.078,0,0,0,.9.3"/><path class="b" d="M148.7,67.8a5.412,5.412,0,0,1,.3-1.9,4.2,4.2,0,0,1,.9-1.4,3.224,3.224,0,0,1,1.4-.8,4.671,4.671,0,0,1,1.7-.3,1.268,1.268,0,0,1,.6.1,4.332,4.332,0,0,1,.5.1V60.9a4.332,4.332,0,0,1,.5-.1c.2,0,.5-.1.7-.1h.7a.764.764,0,0,1,.5.2,1.38,1.38,0,0,1,.3.4,1.483,1.483,0,0,1,.1.7v8a1.574,1.574,0,0,1-.7,1.3,6.658,6.658,0,0,1-1.2.6,4.966,4.966,0,0,1-1.8.2,5.412,5.412,0,0,1-1.9-.3,3.917,3.917,0,0,1-2.3-2.3,3.984,3.984,0,0,1-.3-1.7m4.7-2.1a1.978,1.978,0,0,0-1.4.5,2.348,2.348,0,0,0-.5,1.6,2.537,2.537,0,0,0,.4,1.6,1.428,1.428,0,0,0,1.3.5.749.749,0,0,0,.5-.1c.2-.1.3-.1.4-.2V65.9a1.165,1.165,0,0,0-.7-.2"/><path class="b" d="M163,72.2a4.844,4.844,0,0,1-1.8-.3,7.143,7.143,0,0,1-1.5-.8,5.02,5.02,0,0,1-1-1.4,5.917,5.917,0,0,1-.4-2,3.807,3.807,0,0,1,.4-1.9,3.045,3.045,0,0,1,.9-1.3,5.67,5.67,0,0,1,1.3-.8,3.887,3.887,0,0,1,1.5-.2,4.146,4.146,0,0,1,1.6.3,3.458,3.458,0,0,1,1.2.7,4.44,4.44,0,0,1,.8,1.1,3.194,3.194,0,0,1,.3,1.4,1.222,1.222,0,0,1-.3.9,1.884,1.884,0,0,1-.9.4l-4.1.6a1.387,1.387,0,0,0,.7.8,2.768,2.768,0,0,0,1.3.3,5.067,5.067,0,0,0,1.3-.2,10.376,10.376,0,0,0,1-.4,1,1,0,0,1,.4.5,1.421,1.421,0,0,1,.2.6,1.081,1.081,0,0,1-.7,1.1,5.638,5.638,0,0,1-1.2.4,2.509,2.509,0,0,1-1,.2m-.5-6.6a1.483,1.483,0,0,0-.7.1c-.2.1-.3.2-.5.3a2.186,2.186,0,0,0-.3.5,1.087,1.087,0,0,0-.1.5l2.8-.5c0-.2-.2-.4-.4-.7a1.292,1.292,0,0,0-.8-.2"/><path class="b" d="M178.4,61.7c.1.1.1.3.2.5a1.268,1.268,0,0,1,.1.6,1.222,1.222,0,0,1-.3.9.908.908,0,0,1-.7.3h-3.5v2h3.6a.764.764,0,0,1,.2.5,1.268,1.268,0,0,1,.1.6,1.222,1.222,0,0,1-.3.9.908.908,0,0,1-.7.3h-2.9v3.6a3.536,3.536,0,0,1-.6.1c-.3,0-.5.1-.8.1a1.483,1.483,0,0,1-.7-.1.764.764,0,0,1-.5-.2,1.38,1.38,0,0,1-.3-.4,1.483,1.483,0,0,1-.1-.7V63.4a1.246,1.246,0,0,1,.4-1.1,1.5,1.5,0,0,1,1.1-.4h5.7Z"/><path class="b" d="M179.7,61.4a1.384,1.384,0,0,1,1.5-1.5,1.366,1.366,0,0,1,1.1.4,1.5,1.5,0,0,1-1.1,2.6,1.366,1.366,0,0,1-1.1-.4,1.82,1.82,0,0,1-.4-1.1m3,10.5a4.332,4.332,0,0,1-.5.1c-.2,0-.5.1-.7.1a1.7,1.7,0,0,1-.7-.1.764.764,0,0,1-.5-.2,1.38,1.38,0,0,1-.3-.4,1.483,1.483,0,0,1-.1-.7V63.8a4.332,4.332,0,0,1,.5-.1c.2,0,.5-.1.7-.1a1.7,1.7,0,0,1,.7.1.764.764,0,0,1,.5.2,1.381,1.381,0,0,1,.3.4,1.483,1.483,0,0,1,.1.7Z"/><path class="b" d="M189.5,66.7a1.136,1.136,0,0,0-.3-.8,1.077,1.077,0,0,0-.8-.2,1.952,1.952,0,0,0-.7.1c-.2.1-.4.1-.6.3v5.8a4.332,4.332,0,0,1-.5.1c-.2,0-.5.1-.7.1a1.7,1.7,0,0,1-.7-.1.764.764,0,0,1-.5-.2,1.38,1.38,0,0,1-.3-.4,1.483,1.483,0,0,1-.1-.7V65.6a1.166,1.166,0,0,1,.2-.7,1.205,1.205,0,0,1,.5-.5,4.58,4.58,0,0,1,1.4-.7,5.822,5.822,0,0,1,1.9-.3,4.985,4.985,0,0,1,2.9.8,2.765,2.765,0,0,1,1,2.3v5.3a4.332,4.332,0,0,1-.5.1c-.2,0-.5.1-.7.1a1.7,1.7,0,0,1-.7-.1.764.764,0,0,1-.5-.2,1.38,1.38,0,0,1-.3-.4,1.483,1.483,0,0,1-.1-.7V66.7Z"/><path class="b" d="M197.4,63.5a7.772,7.772,0,0,1,1.6.2,3.1,3.1,0,0,1,1.3.6,3.915,3.915,0,0,1,.8,1,2.9,2.9,0,0,1,.3,1.4v3.8a1.445,1.445,0,0,1-.2.7,3.171,3.171,0,0,1-.6.5,6.03,6.03,0,0,1-3,.7,7.772,7.772,0,0,1-1.6-.2,3.337,3.337,0,0,1-1.2-.5,2.559,2.559,0,0,1-1.1-2.1,2.139,2.139,0,0,1,.7-1.8,4.031,4.031,0,0,1,2.1-.8l2.2-.2v-.1a.67.67,0,0,0-.4-.7,3.73,3.73,0,0,0-1.2-.2,4.869,4.869,0,0,0-1.2.1c-.4.1-.8.2-1.1.3a2.181,2.181,0,0,1-.4-.5,1.268,1.268,0,0,1-.1-.6,1.445,1.445,0,0,1,.2-.7c.1-.2.4-.3.6-.4.3-.1.7-.2,1.1-.3a2.536,2.536,0,0,1,1.2-.2m.1,6.6a1.268,1.268,0,0,0,.6-.1.764.764,0,0,0,.5-.2V68.5l-1.2.1a1.884,1.884,0,0,0-.8.2.567.567,0,0,0,0,1,1.222,1.222,0,0,0,.9.3"/><path class="b" d="M208.2,66.7a1.136,1.136,0,0,0-.3-.8,1.077,1.077,0,0,0-.8-.2,1.952,1.952,0,0,0-.7.1c-.2.1-.4.1-.6.3v5.8a4.332,4.332,0,0,1-.5.1c-.2,0-.5.1-.7.1a1.7,1.7,0,0,1-.7-.1.764.764,0,0,1-.5-.2,1.38,1.38,0,0,1-.3-.4,1.483,1.483,0,0,1-.1-.7V65.6a1.166,1.166,0,0,1,.2-.7,1.205,1.205,0,0,1,.5-.5,4.58,4.58,0,0,1,1.4-.7,5.822,5.822,0,0,1,1.9-.3,4.985,4.985,0,0,1,2.9.8,2.765,2.765,0,0,1,1,2.3v5.3a4.332,4.332,0,0,1-.5.1c-.2,0-.5.1-.7.1a1.7,1.7,0,0,1-.7-.1.764.764,0,0,1-.5-.2,1.38,1.38,0,0,1-.3-.4,1.483,1.483,0,0,1-.1-.7V66.7Z"/><path class="b" d="M213,71.9a1.275,1.275,0,0,1-.4-.6,1.854,1.854,0,0,1-.2-.7,2.544,2.544,0,0,1,.2-.7,2.092,2.092,0,0,1,.4-.6l2.8-3.4h-3c-.1-.1-.1-.3-.2-.5a1.268,1.268,0,0,1-.1-.6,1.222,1.222,0,0,1,.3-.9.908.908,0,0,1,.7-.3h5.2a1.275,1.275,0,0,1,.4.6,1.854,1.854,0,0,1,.2.7,2.544,2.544,0,0,1-.2.7,2.092,2.092,0,0,1-.4.6l-2.8,3.4h3.2c.1.1.1.3.2.5a1.268,1.268,0,0,1,.1.6,1.222,1.222,0,0,1-.3.9.908.908,0,0,1-.7.3H213Z"/><path class="b" d="M224,63.5a7.772,7.772,0,0,1,1.6.2,3.1,3.1,0,0,1,1.3.6,3.915,3.915,0,0,1,.8,1,2.9,2.9,0,0,1,.3,1.4v3.8a1.445,1.445,0,0,1-.2.7c-.2.2-.4.3-.6.5a6.03,6.03,0,0,1-3,.7,7.772,7.772,0,0,1-1.6-.2,3.337,3.337,0,0,1-1.2-.5,2.559,2.559,0,0,1-1.1-2.1,2.139,2.139,0,0,1,.7-1.8,4.031,4.031,0,0,1,2.1-.8l2.2-.2v-.1a.67.67,0,0,0-.4-.7,3.73,3.73,0,0,0-1.2-.2,4.869,4.869,0,0,0-1.2.1c-.4.1-.8.2-1.1.3a2.181,2.181,0,0,1-.4-.5,1.268,1.268,0,0,1-.1-.6,1.445,1.445,0,0,1,.2-.7c.1-.2.4-.3.6-.4.3-.1.7-.2,1.1-.3a2.536,2.536,0,0,1,1.2-.2m.1,6.6a1.268,1.268,0,0,0,.6-.1.764.764,0,0,0,.5-.2V68.5l-1.2.1a1.884,1.884,0,0,0-.8.2.567.567,0,0,0,0,1,1.222,1.222,0,0,0,.9.3"/><path class="b" d="M236.5,69.5a2.384,2.384,0,0,1-.9,2,4.462,4.462,0,0,1-2.8.7,5.283,5.283,0,0,1-1.3-.1c-.4-.1-.7-.2-1-.3a1.794,1.794,0,0,1-.7-.5,1.077,1.077,0,0,1-.2-.8,1.445,1.445,0,0,1,.2-.7,1.756,1.756,0,0,1,.4-.5,11.731,11.731,0,0,0,1.1.5,5.9,5.9,0,0,0,1.4.2,1.077,1.077,0,0,0,.8-.2c.2-.1.3-.2.3-.4a.52.52,0,0,0-.2-.4,1.165,1.165,0,0,0-.7-.2l-.5-.1a4.124,4.124,0,0,1-2.1-.9,2.139,2.139,0,0,1-.7-1.8,2.016,2.016,0,0,1,.3-1.1,2.7,2.7,0,0,1,.7-.8,3.337,3.337,0,0,1,1.2-.5,6.052,6.052,0,0,1,1.5-.2,3.75,3.75,0,0,1,1.1.1,4.649,4.649,0,0,1,.9.3,1.024,1.024,0,0,1,.6.5.844.844,0,0,1,.2.7,1.483,1.483,0,0,1-.1.7,1.756,1.756,0,0,1-.4.5c-.1-.1-.2-.1-.4-.2s-.4-.1-.6-.2c-.2,0-.4-.1-.6-.1s-.4-.1-.6-.1a1.719,1.719,0,0,0-.8.1c-.2.1-.3.2-.3.4,0,.1.1.2.2.3a.845.845,0,0,0,.6.2l.5.1a4.945,4.945,0,0,1,2.3,1,3.51,3.51,0,0,1,.6,1.8"/><path class="b" d="M239.5,73.1a2.651,2.651,0,0,1-.6.5,1.884,1.884,0,0,1-.8.2,1.594,1.594,0,0,1-1.2-.4l.6-2.1a17.657,17.657,0,0,0,.4-2,4.876,4.876,0,0,1,.7-.3,2.2,2.2,0,0,1,.8-.1,2.92,2.92,0,0,1,.9.2.812.812,0,0,1,.4.8,2.485,2.485,0,0,1-.1.8l-.3.9a2.01,2.01,0,0,1-.4.8c-.1.3-.2.6-.4.7"/><path class="b" d="M152.2,88.6a3.536,3.536,0,0,1-.6.1h-.8a1.483,1.483,0,0,1-.7-.1.764.764,0,0,1-.5-.2,1.38,1.38,0,0,1-.3-.4,1.483,1.483,0,0,1-.1-.7V78.4a3.536,3.536,0,0,1,.6-.1c.3,0,.5-.1.8-.1a1.483,1.483,0,0,1,.7.1.764.764,0,0,1,.5.2,1.38,1.38,0,0,1,.3.4,1.483,1.483,0,0,1,.1.7Z"/><path class="b" d="M159.2,83.5a1.136,1.136,0,0,0-.3-.8,1.077,1.077,0,0,0-.8-.2,1.952,1.952,0,0,0-.7.1c-.2.1-.4.1-.6.3v5.8a4.332,4.332,0,0,1-.5.1c-.2,0-.5.1-.7.1a1.7,1.7,0,0,1-.7-.1.764.764,0,0,1-.5-.2,1.38,1.38,0,0,1-.3-.4,1.483,1.483,0,0,1-.1-.7V82.4a1.166,1.166,0,0,1,.2-.7,1.205,1.205,0,0,1,.5-.5,4.58,4.58,0,0,1,1.4-.7,5.822,5.822,0,0,1,1.9-.3,4.985,4.985,0,0,1,2.9.8,2.765,2.765,0,0,1,1,2.3v5.3a4.332,4.332,0,0,1-.5.1c-.2,0-.5.1-.7.1a1.7,1.7,0,0,1-.7-.1.764.764,0,0,1-.5-.2,1.38,1.38,0,0,1-.3-.4,1.483,1.483,0,0,1-.1-.7V83.5Z"/><path class="b" d="M168.9,88.5a4.876,4.876,0,0,1-.7.3,3.083,3.083,0,0,1-1,.1,3.6,3.6,0,0,1-1.1-.2,1.794,1.794,0,0,1-.7-.5,5.9,5.9,0,0,0-.4-.8c-.1-.3-.3-.7-.4-1.1-.2-.4-.3-.9-.5-1.4s-.3-1-.5-1.4c-.1-.5-.3-.9-.4-1.4l-.3-1.2a2.092,2.092,0,0,1,.6-.4,2.388,2.388,0,0,1,.9-.2,2.959,2.959,0,0,1,1,.2,3.49,3.49,0,0,1,.6.9l.6,2.6c.1.5.2,1,.3,1.4a4.4,4.4,0,0,1,.2,1h.1c.2-.8.4-1.8.7-2.8l.6-3a1.421,1.421,0,0,1,.6-.2,2.038,2.038,0,0,1,1.7.2.975.975,0,0,1,.4.9,2.814,2.814,0,0,1-.1.8,10.378,10.378,0,0,0-.3,1.2c-.1.4-.3.9-.4,1.4-.2.5-.3,1-.5,1.4a11.217,11.217,0,0,0-.5,1.3,4.052,4.052,0,0,0-.5.9"/><path class="b" d="M176.7,89a4.844,4.844,0,0,1-1.8-.3,7.143,7.143,0,0,1-1.5-.8,5.02,5.02,0,0,1-1-1.4,5.917,5.917,0,0,1-.4-2,3.807,3.807,0,0,1,.4-1.9,3.045,3.045,0,0,1,.9-1.3,5.67,5.67,0,0,1,1.3-.8,3.887,3.887,0,0,1,1.5-.2,4.145,4.145,0,0,1,1.6.3,3.458,3.458,0,0,1,1.2.7,4.44,4.44,0,0,1,.8,1.1,3.194,3.194,0,0,1,.3,1.4,1.222,1.222,0,0,1-.3.9,1.884,1.884,0,0,1-.9.4l-4.1.6a1.387,1.387,0,0,0,.7.8,2.768,2.768,0,0,0,1.3.3,5.067,5.067,0,0,0,1.3-.2,10.376,10.376,0,0,0,1-.4,1,1,0,0,1,.4.5,1.421,1.421,0,0,1,.2.6,1.081,1.081,0,0,1-.7,1.1,5.638,5.638,0,0,1-1.2.4,2.509,2.509,0,0,1-1,.2m-.5-6.6a1.483,1.483,0,0,0-.7.1c-.2.1-.3.2-.5.3a2.186,2.186,0,0,0-.3.5,1.087,1.087,0,0,0-.1.5l2.8-.5c0-.2-.2-.4-.4-.7,0-.1-.3-.2-.8-.2"/><path class="b" d="M184.4,88.7a4.332,4.332,0,0,1-.5.1c-.2,0-.5.1-.7.1a1.7,1.7,0,0,1-.7-.1.764.764,0,0,1-.5-.2,1.38,1.38,0,0,1-.3-.4,1.483,1.483,0,0,1-.1-.7V82.4a1.483,1.483,0,0,1,.1-.7,1,1,0,0,1,.4-.5,4.348,4.348,0,0,1,.7-.4c.3-.1.5-.2.8-.3a2.92,2.92,0,0,1,.9-.2,3.083,3.083,0,0,1,1-.1,2.768,2.768,0,0,1,1.3.3,1.1,1.1,0,0,1,.5,1,.9.9,0,0,1-.1.5.52.52,0,0,1-.2.4h-.7c-.2,0-.5.1-.7.1s-.4.1-.7.1c-.2.1-.4.1-.5.2Z"/><path class="b" d="M195.1,86.3a2.384,2.384,0,0,1-.9,2,4.462,4.462,0,0,1-2.8.7,5.283,5.283,0,0,1-1.3-.1c-.4-.1-.7-.2-1-.3a1.794,1.794,0,0,1-.7-.5,1.077,1.077,0,0,1-.2-.8,1.445,1.445,0,0,1,.2-.7,1.756,1.756,0,0,1,.4-.5,11.731,11.731,0,0,0,1.1.5,5.9,5.9,0,0,0,1.4.2,1.077,1.077,0,0,0,.8-.2c.2-.1.3-.2.3-.4a.52.52,0,0,0-.2-.4,1.165,1.165,0,0,0-.7-.2l-.5-.1a4.124,4.124,0,0,1-2.1-.9,2.139,2.139,0,0,1-.7-1.8,2.016,2.016,0,0,1,.3-1.1,2.7,2.7,0,0,1,.7-.8,3.7,3.7,0,0,1,1.1-.5,6.052,6.052,0,0,1,1.5-.2,3.75,3.75,0,0,1,1.1.1,4.649,4.649,0,0,1,.9.3,1.024,1.024,0,0,1,.6.5.844.844,0,0,1,.2.7,1.483,1.483,0,0,1-.1.7,1.756,1.756,0,0,1-.4.5c-.1-.1-.2-.1-.4-.2s-.4-.1-.6-.2c-.2,0-.4-.1-.6-.1s-.4-.1-.6-.1a1.719,1.719,0,0,0-.8.1c-.2.1-.3.2-.3.4,0,.1.1.2.2.3a.845.845,0,0,0,.6.2l.5.1a4.945,4.945,0,0,1,2.3,1,2.41,2.41,0,0,1,.7,1.8"/><path class="b" d="M196.4,78.3a1.384,1.384,0,0,1,1.5-1.5,1.366,1.366,0,0,1,1.1.4,1.5,1.5,0,0,1-1.1,2.6,1.366,1.366,0,0,1-1.1-.4,1.666,1.666,0,0,1-.4-1.1m3,10.4a4.332,4.332,0,0,1-.5.1c-.2,0-.5.1-.7.1a1.7,1.7,0,0,1-.7-.1.764.764,0,0,1-.5-.2,1.38,1.38,0,0,1-.3-.4,1.483,1.483,0,0,1-.1-.7V80.6a4.332,4.332,0,0,1,.5-.1c.2,0,.5-.1.7-.1a1.7,1.7,0,0,1,.7.1.764.764,0,0,1,.5.2,1.38,1.38,0,0,1,.3.4,1.483,1.483,0,0,1,.1.7Z"/><path class="b" d="M209.5,84.6a5.822,5.822,0,0,1-.3,1.9,4.2,4.2,0,0,1-.9,1.4,2.477,2.477,0,0,1-1.4.8,4.844,4.844,0,0,1-1.8.3,5.662,5.662,0,0,1-1.8-.3,3.917,3.917,0,0,1-2.3-2.3,5.23,5.23,0,0,1-.3-1.8,4.844,4.844,0,0,1,.3-1.8,4.2,4.2,0,0,1,.9-1.4,3.39,3.39,0,0,1,1.4-.9,5.55,5.55,0,0,1,3.6,0,4.194,4.194,0,0,1,1.4.9,3.39,3.39,0,0,1,.9,1.4,5.663,5.663,0,0,1,.3,1.8m-3.9-8.4a1.737,1.737,0,0,1,1.2.3.909.909,0,0,1,.4.8,1.445,1.445,0,0,1-.2.7,2.761,2.761,0,0,1-.8.6l-2.1,1.1a1.234,1.234,0,0,1-.8-.4,1.136,1.136,0,0,1-.3-.8.6.6,0,0,1,.1-.4c.1-.1.2-.3.3-.4Zm-1.9,8.4a2.537,2.537,0,0,0,.4,1.6,1.173,1.173,0,0,0,1.1.5,1.255,1.255,0,0,0,1.1-.6,3.408,3.408,0,0,0,.4-1.6,2.537,2.537,0,0,0-.4-1.6,1.173,1.173,0,0,0-1.1-.5,1.433,1.433,0,0,0-1.1.5,3.064,3.064,0,0,0-.4,1.7"/><path class="b" d="M215.9,83.5a1.136,1.136,0,0,0-.3-.8,1.077,1.077,0,0,0-.8-.2,1.952,1.952,0,0,0-.7.1c-.2.1-.4.1-.6.3v5.8a4.332,4.332,0,0,1-.5.1c-.2,0-.5.1-.7.1a1.7,1.7,0,0,1-.7-.1.764.764,0,0,1-.5-.2,1.38,1.38,0,0,1-.3-.4,1.483,1.483,0,0,1-.1-.7V82.4a1.166,1.166,0,0,1,.2-.7,1.205,1.205,0,0,1,.5-.5,4.58,4.58,0,0,1,1.4-.7,5.822,5.822,0,0,1,1.9-.3,4.985,4.985,0,0,1,2.9.8,2.765,2.765,0,0,1,1,2.3v5.3a4.332,4.332,0,0,1-.5.1c-.2,0-.5.1-.7.1a1.7,1.7,0,0,1-.7-.1.764.764,0,0,1-.5-.2,1.38,1.38,0,0,1-.3-.4,1.483,1.483,0,0,1-.1-.7V83.5Z"/><path class="b" d="M225,86.6c-.1-.3-.3-.6-.4-.9a8.336,8.336,0,0,1-.4-1.2,13.142,13.142,0,0,0-.5-1.5c-.2-.6-.3-1.2-.5-2a2.092,2.092,0,0,1,.6-.4,2.388,2.388,0,0,1,.9-.2,2.959,2.959,0,0,1,1,.2,2.034,2.034,0,0,1,.6.9l1.3,4.6h.1c.1-.4.3-.8.4-1.2s.3-.9.4-1.4.2-1,.3-1.4c.1-.5.2-.9.3-1.4a2.768,2.768,0,0,1,1.3-.3,1.689,1.689,0,0,1,1,.3.975.975,0,0,1,.4.9,4.484,4.484,0,0,1-.1,1.1c-.1.4-.2.8-.3,1.3-.1.4-.3.9-.4,1.4a7.839,7.839,0,0,0-.5,1.4c-.2.5-.4.9-.6,1.3a10.9,10.9,0,0,1-.6,1.1,7.3,7.3,0,0,1-.9,1.3,6.034,6.034,0,0,1-.8.8,2.507,2.507,0,0,1-.7.4,1.949,1.949,0,0,1-.8.1,1.366,1.366,0,0,1-1.1-.4,1.433,1.433,0,0,1-.5-1.1c.4-.3.7-.6,1.1-.9a5.242,5.242,0,0,0,1-1.1,2.092,2.092,0,0,1-.6-.4,2.683,2.683,0,0,1-1-1.3"/><path class="b" d="M151.4,95.6a4.65,4.65,0,0,1,.9-.3,5.019,5.019,0,0,1,1.2-.2,6.8,6.8,0,0,1,1.5.2.953.953,0,0,1,.8.8c.2.6.4,1.3.6,2,.2.8.5,1.6.7,2.4s.5,1.6.7,2.4.4,1.5.6,2.1a.918.918,0,0,1-.6.4,2.769,2.769,0,0,1-.9.1,1.483,1.483,0,0,1-.7-.1.52.52,0,0,1-.4-.2,1.38,1.38,0,0,1-.3-.4c-.1-.1-.1-.3-.2-.5l-.3-1.2h-3c-.1.3-.2.7-.3,1s-.2.7-.3,1a.9.9,0,0,1-.5.1c-.2,0-.4.1-.6.1a2.269,2.269,0,0,1-1.3-.3,1.087,1.087,0,0,1-.3-1.3c0-.2.1-.3.1-.6.1-.3.2-.7.3-1.1s.3-.9.5-1.5c.2-.5.3-1.1.5-1.6a14.243,14.243,0,0,0,.5-1.6,5.024,5.024,0,0,1,.5-1.3c.1.1.2-.2.3-.4m2,2.2c-.2.5-.3,1-.5,1.6a12.091,12.091,0,0,0-.5,1.8h2.1c-.2-.6-.3-1.2-.5-1.8a13.777,13.777,0,0,0-.6-1.6Z"/><path class="b" d="M158.9,101.4a5.412,5.412,0,0,1,.3-1.9,4.2,4.2,0,0,1,.9-1.4,3.224,3.224,0,0,1,1.4-.8,4.671,4.671,0,0,1,1.7-.3,1.268,1.268,0,0,1,.6.1,4.332,4.332,0,0,1,.5.1V94.5a4.332,4.332,0,0,1,.5-.1c.2,0,.5-.1.7-.1a1.7,1.7,0,0,1,.7.1.764.764,0,0,1,.5.2,1.38,1.38,0,0,1,.3.4,1.483,1.483,0,0,1,.1.7v8a1.574,1.574,0,0,1-.7,1.3,6.658,6.658,0,0,1-1.2.6,4.966,4.966,0,0,1-1.8.2,5.412,5.412,0,0,1-1.9-.3,3.917,3.917,0,0,1-2.3-2.3,4.844,4.844,0,0,1-.3-1.8m4.7-2.1a1.978,1.978,0,0,0-1.4.5,2.348,2.348,0,0,0-.5,1.6,2.537,2.537,0,0,0,.4,1.6,1.428,1.428,0,0,0,1.3.5.749.749,0,0,0,.5-.1c.2-.1.3-.1.4-.2V99.5a1.165,1.165,0,0,0-.7-.2"/><path class="b" d="M172.8,97.1a5.067,5.067,0,0,1,1.3.2,2.384,2.384,0,0,1,1.1.6,10.907,10.907,0,0,1,1.1-.6,6.052,6.052,0,0,1,1.5-.2,5.019,5.019,0,0,1,1.2.2,3.7,3.7,0,0,1,1.1.5,2.723,2.723,0,0,1,.8,1,3.339,3.339,0,0,1,.3,1.5v5.3a4.332,4.332,0,0,1-.5.1c-.2,0-.5.1-.7.1a1.7,1.7,0,0,1-.7-.1.764.764,0,0,1-.5-.2,1.38,1.38,0,0,1-.3-.4,1.483,1.483,0,0,1-.1-.7v-4a.779.779,0,0,0-.3-.7c-.2-.2-.4-.2-.8-.2a.9.9,0,0,0-.5.1c-.2.1-.3.1-.4.2v5.8a4.332,4.332,0,0,1-.5.1c-.2,0-.5.1-.7.1a1.7,1.7,0,0,1-.7-.1.764.764,0,0,1-.5-.2,1.38,1.38,0,0,1-.3-.4,1.483,1.483,0,0,1-.1-.7v-4a.779.779,0,0,0-.3-.7.844.844,0,0,0-.7-.2.749.749,0,0,0-.5.1c-.1.1-.3.1-.4.2v5.9a4.332,4.332,0,0,1-.5.1c-.2,0-.5.1-.7.1a1.7,1.7,0,0,1-.7-.1.764.764,0,0,1-.5-.2,1.38,1.38,0,0,1-.3-.4,1.483,1.483,0,0,1-.1-.7V99.4a1.445,1.445,0,0,1,.2-.7c.1-.2.3-.3.5-.5a4.58,4.58,0,0,1,1.4-.7,3.922,3.922,0,0,1,1.8-.4"/><path class="b" d="M182.9,95.1a1.384,1.384,0,0,1,1.5-1.5,1.366,1.366,0,0,1,1.1.4,1.5,1.5,0,0,1-1.1,2.6,1.366,1.366,0,0,1-1.1-.4,2.46,2.46,0,0,1-.4-1.1m3,10.4a4.332,4.332,0,0,1-.5.1c-.2,0-.5.1-.7.1a1.7,1.7,0,0,1-.7-.1.764.764,0,0,1-.5-.2,1.38,1.38,0,0,1-.3-.4,1.483,1.483,0,0,1-.1-.7V97.4a4.332,4.332,0,0,1,.5-.1c.2,0,.5-.1.7-.1a1.7,1.7,0,0,1,.7.1.764.764,0,0,1,.5.2,1.38,1.38,0,0,1,.3.4,1.483,1.483,0,0,1,.1.7Z"/><path class="b" d="M192.7,100.3a1.136,1.136,0,0,0-.3-.8,1.077,1.077,0,0,0-.8-.2,1.952,1.952,0,0,0-.7.1c-.2.1-.4.1-.6.3v5.8a4.332,4.332,0,0,1-.5.1c-.2,0-.5.1-.7.1a1.7,1.7,0,0,1-.7-.1.764.764,0,0,1-.5-.2,1.38,1.38,0,0,1-.3-.4,1.483,1.483,0,0,1-.1-.7V99.2a1.445,1.445,0,0,1,.2-.7,1.205,1.205,0,0,1,.5-.5,4.58,4.58,0,0,1,1.4-.7,5.822,5.822,0,0,1,1.9-.3,4.985,4.985,0,0,1,2.9.8,2.765,2.765,0,0,1,1,2.3v5.3a4.332,4.332,0,0,1-.5.1c-.2,0-.5.1-.7.1a1.7,1.7,0,0,1-.7-.1.764.764,0,0,1-.5-.2,1.38,1.38,0,0,1-.3-.4,1.483,1.483,0,0,1-.1-.7v-3.9Z"/><path class="b" d="M197.2,95.1a1.384,1.384,0,0,1,1.5-1.5,1.366,1.366,0,0,1,1.1.4,1.5,1.5,0,0,1-1.1,2.6,1.366,1.366,0,0,1-1.1-.4,2.46,2.46,0,0,1-.4-1.1m3,10.4a4.332,4.332,0,0,1-.5.1c-.2,0-.5.1-.7.1a1.7,1.7,0,0,1-.7-.1.764.764,0,0,1-.5-.2,1.38,1.38,0,0,1-.3-.4,1.483,1.483,0,0,1-.1-.7V97.4a4.332,4.332,0,0,1,.5-.1c.2,0,.5-.1.7-.1a1.7,1.7,0,0,1,.7.1.764.764,0,0,1,.5.2,1.38,1.38,0,0,1,.3.4,1.483,1.483,0,0,1,.1.7Z"/><path class="b" d="M208.7,103.1a2.384,2.384,0,0,1-.9,2,4.462,4.462,0,0,1-2.8.7,5.283,5.283,0,0,1-1.3-.1c-.4-.1-.7-.2-1-.3a1.794,1.794,0,0,1-.7-.5,1.077,1.077,0,0,1-.2-.8,1.445,1.445,0,0,1,.2-.7,1.756,1.756,0,0,1,.4-.5,11.731,11.731,0,0,0,1.1.5,5.9,5.9,0,0,0,1.4.2,1.884,1.884,0,0,0,.8-.2c.2-.1.3-.2.3-.4a.52.52,0,0,0-.2-.4,1.165,1.165,0,0,0-.7-.2l-.5-.1a4.124,4.124,0,0,1-2.1-.9,2.139,2.139,0,0,1-.7-1.8,2.016,2.016,0,0,1,.3-1.1,2.7,2.7,0,0,1,.7-.8,3.337,3.337,0,0,1,1.2-.5,6.052,6.052,0,0,1,1.5-.2,3.75,3.75,0,0,1,1.1.1,4.649,4.649,0,0,1,.9.3,1.024,1.024,0,0,1,.6.5.844.844,0,0,1,.2.7,1.483,1.483,0,0,1-.1.7,1.756,1.756,0,0,1-.4.5c-.1-.1-.2-.1-.4-.2s-.4-.1-.6-.2c-.2,0-.4-.1-.6-.1h-.6a1.719,1.719,0,0,0-.8.1c-.2.1-.3.2-.3.4,0,.1.1.2.2.3a.845.845,0,0,0,.6.2l.5.1a4.945,4.945,0,0,1,2.3,1,2.352,2.352,0,0,1,.6,1.7"/><path class="b" d="M212.9,102.7a.6.6,0,0,0,.3.6,1.549,1.549,0,0,0,.8.2h.5c.2,0,.3-.1.5-.1.1.1.2.3.3.4a.9.9,0,0,1,.1.5,1.231,1.231,0,0,1-.5,1,2.5,2.5,0,0,1-1.7.4,2.918,2.918,0,0,1-2.2-.7,2.794,2.794,0,0,1-.8-2.2V95.6a4.332,4.332,0,0,1,.5-.1c.2,0,.5-.1.7-.1a1.609,1.609,0,0,1,1.1.3c.3.2.4.5.4,1.1V98h2.2c.1.1.1.3.2.5a1.268,1.268,0,0,1,.1.6,1.222,1.222,0,0,1-.3.9.908.908,0,0,1-.7.3h-1.5v2.4Z"/><path class="b" d="M219.5,105.5a4.332,4.332,0,0,1-.5.1c-.2,0-.5.1-.7.1a1.7,1.7,0,0,1-.7-.1.764.764,0,0,1-.5-.2,1.38,1.38,0,0,1-.3-.4,1.483,1.483,0,0,1-.1-.7V99.2a1.483,1.483,0,0,1,.1-.7,1,1,0,0,1,.4-.5,4.348,4.348,0,0,1,.7-.4c.3-.1.5-.2.8-.3a2.92,2.92,0,0,1,.9-.2,3.083,3.083,0,0,1,1-.1,2.768,2.768,0,0,1,1.3.3,1.1,1.1,0,0,1,.5,1,.9.9,0,0,1-.1.5.52.52,0,0,1-.2.4h-.7c-.2,0-.5.1-.7.1s-.4.1-.7.1a.764.764,0,0,0-.5.2Z"/><path class="b" d="M226.6,97.1a7.772,7.772,0,0,1,1.6.2,3.1,3.1,0,0,1,1.3.6,3.915,3.915,0,0,1,.8,1,2.9,2.9,0,0,1,.3,1.4v3.8a1.445,1.445,0,0,1-.2.7c-.2.2-.4.3-.6.5a6.03,6.03,0,0,1-3,.7,7.772,7.772,0,0,1-1.6-.2,3.337,3.337,0,0,1-1.2-.5,2.559,2.559,0,0,1-1.1-2.1,2.139,2.139,0,0,1,.7-1.8,4.031,4.031,0,0,1,2.1-.8l2.2-.2v-.1a.67.67,0,0,0-.4-.7,3.73,3.73,0,0,0-1.2-.2,4.869,4.869,0,0,0-1.2.1c-.4.1-.8.2-1.1.3a2.181,2.181,0,0,1-.4-.5,1.268,1.268,0,0,1-.1-.6,1.445,1.445,0,0,1,.2-.7c.1-.2.4-.3.6-.4.3-.1.7-.2,1.1-.3a2.536,2.536,0,0,1,1.2-.2m.1,6.6a1.268,1.268,0,0,0,.6-.1.764.764,0,0,0,.5-.2v-1.3l-1.2.1a1.884,1.884,0,0,0-.8.2.567.567,0,0,0,0,1,1.222,1.222,0,0,0,.9.3"/><path class="b" d="M236.8,99.3a2.2,2.2,0,0,0-.8.1c-.2.1-.5.2-.6.4a2.092,2.092,0,0,0-.4.6,2.92,2.92,0,0,0-.2.9,2.111,2.111,0,0,0,.6,1.6,2.389,2.389,0,0,0,1.4.5,2.769,2.769,0,0,0,.9-.1,3.329,3.329,0,0,0,.6-.3c.2.2.4.3.5.5a1.445,1.445,0,0,1,.2.7,1.255,1.255,0,0,1-.6,1.1,3.007,3.007,0,0,1-1.8.4,5.822,5.822,0,0,1-1.9-.3,3.917,3.917,0,0,1-2.3-2.3,4.844,4.844,0,0,1-.3-1.8,3.807,3.807,0,0,1,.4-1.9,3.587,3.587,0,0,1,1-1.4,3.924,3.924,0,0,1,1.4-.8,4.671,4.671,0,0,1,1.7-.3,3.007,3.007,0,0,1,1.8.4,1.382,1.382,0,0,1,.6,1.1,1.268,1.268,0,0,1-.1.6c-.1.2-.2.3-.3.5a4.876,4.876,0,0,0-.7-.3,2.232,2.232,0,0,1-1.1.1"/><path class="b" d="M240.3,95.1a1.384,1.384,0,0,1,1.5-1.5,1.366,1.366,0,0,1,1.1.4,1.5,1.5,0,0,1-1.1,2.6,1.366,1.366,0,0,1-1.1-.4,1.666,1.666,0,0,1-.4-1.1m2.9,10.4a4.332,4.332,0,0,1-.5.1c-.2,0-.5.1-.7.1a1.7,1.7,0,0,1-.7-.1.764.764,0,0,1-.5-.2,1.38,1.38,0,0,1-.3-.4,1.483,1.483,0,0,1-.1-.7V97.4a4.332,4.332,0,0,1,.5-.1c.2,0,.5-.1.7-.1a1.7,1.7,0,0,1,.7.1.764.764,0,0,1,.5.2,1.38,1.38,0,0,1,.3.4,1.483,1.483,0,0,1,.1.7Z"/><path class="b" d="M253.3,101.4a5.822,5.822,0,0,1-.3,1.9,4.2,4.2,0,0,1-.9,1.4,2.477,2.477,0,0,1-1.4.8,4.844,4.844,0,0,1-1.8.3,5.662,5.662,0,0,1-1.8-.3,4.194,4.194,0,0,1-1.4-.9,3.39,3.39,0,0,1-.9-1.4,5.55,5.55,0,0,1,0-3.6,4.2,4.2,0,0,1,.9-1.4,3.39,3.39,0,0,1,1.4-.9,4.844,4.844,0,0,1,1.8-.3,5.23,5.23,0,0,1,1.8.3,4.194,4.194,0,0,1,1.4.9,3.39,3.39,0,0,1,.9,1.4,5.663,5.663,0,0,1,.3,1.8M249.5,93a1.737,1.737,0,0,1,1.2.3.909.909,0,0,1,.4.8,1.445,1.445,0,0,1-.2.7,2.761,2.761,0,0,1-.8.6L248,96.5a1.234,1.234,0,0,1-.8-.4,1.136,1.136,0,0,1-.3-.8.6.6,0,0,1,.1-.4c.1-.1.2-.3.3-.4Zm-2,8.4a2.537,2.537,0,0,0,.4,1.6,1.173,1.173,0,0,0,1.1.5,1.255,1.255,0,0,0,1.1-.6,3.408,3.408,0,0,0,.4-1.6,2.537,2.537,0,0,0-.4-1.6,1.173,1.173,0,0,0-1.1-.5,1.433,1.433,0,0,0-1.1.5,4.256,4.256,0,0,0-.4,1.7"/><path class="b" d="M259.8,100.3a1.136,1.136,0,0,0-.3-.8,1.077,1.077,0,0,0-.8-.2,1.952,1.952,0,0,0-.7.1c-.2.1-.4.1-.6.3v5.8a4.331,4.331,0,0,1-.5.1c-.2,0-.5.1-.7.1a1.7,1.7,0,0,1-.7-.1.764.764,0,0,1-.5-.2,1.38,1.38,0,0,1-.3-.4,1.483,1.483,0,0,1-.1-.7V99.2a1.445,1.445,0,0,1,.2-.7,1.205,1.205,0,0,1,.5-.5,4.58,4.58,0,0,1,1.4-.7,5.822,5.822,0,0,1,1.9-.3,4.985,4.985,0,0,1,2.9.8,2.765,2.765,0,0,1,1,2.3v5.3a4.331,4.331,0,0,1-.5.1c-.2,0-.5.1-.7.1a1.7,1.7,0,0,1-.7-.1.764.764,0,0,1-.5-.2,1.38,1.38,0,0,1-.3-.4,1.483,1.483,0,0,1-.1-.7v-3.9Z"/><circle class="c" cx="69.6" cy="69.6" r="69.6" transform="translate(0 5.1)"/><path class="b" d="M46.8,97.7a3.6,3.6,0,0,0-1.1.2,4.054,4.054,0,0,0-.9.5,3.49,3.49,0,0,0-.6.9,4,4,0,0,0,0,2.5,2.361,2.361,0,0,0,.6.9,7.018,7.018,0,0,0,.9.6,5.019,5.019,0,0,0,1.2.2,3.6,3.6,0,0,0,1.1-.2,2.01,2.01,0,0,0,.8-.4.812.812,0,0,0,.4-.8V96.7c0-.2,0-.3-.1-.4a.215.215,0,0,0-.2-.2.367.367,0,0,0-.3-.1H47.5v1.9l-.2-.1c-.1,0-.2-.1-.3-.1ZM47,102a1.284,1.284,0,0,1-1-.4,1.8,1.8,0,0,1-.3-1.1,1.594,1.594,0,0,1,.4-1.2,1.159,1.159,0,0,1,1-.4,1.421,1.421,0,0,1,.6.2h.1v2.6h0c-.1.1-.2.1-.3.2A.9.9,0,0,1,47,102Z"/><path class="b" d="M40.7,98.9a1.072,1.072,0,0,1,.6.2c.2.1.2.3.2.6v2.7c0,.2,0,.3.1.4a.215.215,0,0,0,.2.2.367.367,0,0,0,.3.1h1.1V99.6a2.035,2.035,0,0,0-.6-1.5,2.427,2.427,0,0,0-1.8-.5,4.3,4.3,0,0,0-1.2.2,3.919,3.919,0,0,0-.9.4l-.3.3a.6.6,0,0,0-.1.4v3.4c0,.2,0,.3.1.4a.215.215,0,0,0,.2.2.367.367,0,0,0,.3.1H40V99.1h.1c.1-.1.3-.1.4-.2C40.4,99,40.5,98.9,40.7,98.9Z"/><path class="b" d="M34.2,98.9a2,2,0,0,1,.9.2.6.6,0,0,1,.3.6v.2l-1.5.2a2.226,2.226,0,0,0-1.3.5,1.366,1.366,0,0,0-.4,1.1,2.353,2.353,0,0,0,.2.8,1.205,1.205,0,0,0,.5.5,1.909,1.909,0,0,0,.8.3,3.083,3.083,0,0,0,1,.1,3.361,3.361,0,0,0,1.9-.4c.1-.1.3-.2.3-.3.1-.1.1-.2.1-.4V99.8a2.92,2.92,0,0,0-.2-.9,2.651,2.651,0,0,0-.5-.6,2.01,2.01,0,0,0-.8-.4,5.568,5.568,0,0,0-1.9-.1,1.445,1.445,0,0,0-.7.2,1.38,1.38,0,0,0-.4.3c-.1.1-.1.2-.1.4a.6.6,0,0,0,.1.4.215.215,0,0,0,.2.2,6.373,6.373,0,0,1,.7-.2A1.078,1.078,0,0,1,34.2,98.9Zm.4,3.2a1.445,1.445,0,0,1-.7-.2.764.764,0,0,1-.2-.5c0-.2.1-.4.3-.4.1-.1.3-.1.6-.2l.9-.1v1.1h-.1c-.1.1-.2.1-.4.1C34.8,102.1,34.7,102.1,34.6,102.1Z"/><path class="b" d="M30.8,97.7h-.6c-.2,0-.4.1-.6.1-.2.1-.4.1-.5.2-.2.1-.3.2-.4.2-.1.1-.2.2-.2.3-.1.1-.1.2-.1.4v3.4c0,.2,0,.3.1.4a.215.215,0,0,0,.2.2.367.367,0,0,0,.3.1h1.1V99.1h.1c.1,0,.2-.1.4-.1.1,0,.3-.1.4-.1.2,0,.3-.1.5-.1h.4c0-.1,0-.1.1-.2v-.3a.6.6,0,0,0-.3-.6Z"/><path class="b" d="M24.7,96.3a6.753,6.753,0,0,0-1.4.2,3.746,3.746,0,0,0-1.2.7,4.44,4.44,0,0,0-.8,1.1,3.808,3.808,0,0,0-.3,1.6,3.339,3.339,0,0,0,.3,1.5,2.836,2.836,0,0,0,.8,1.1,2.281,2.281,0,0,0,1.2.6,4.421,4.421,0,0,0,2,.2c.2,0,.4-.1.6-.1s.3-.1.5-.1c.1-.1.3-.1.4-.2q.3-.15.3-.3c.1-.1.1-.2.1-.5V99.8c0-.2,0-.3-.1-.4a.52.52,0,0,0-.4-.2H24.8c-.2,0-.3,0-.4.1a.749.749,0,0,0-.1.5.6.6,0,0,0,.1.4.349.349,0,0,0,.1.2h1.2v1.3h-.1c-.1,0-.2.1-.3.1h-.5a1.483,1.483,0,0,1-.7-.1,2.092,2.092,0,0,1-.6-.4,1.612,1.612,0,0,1-.4-.7,2.92,2.92,0,0,1-.2-.9,2.065,2.065,0,0,1,2.2-2.2,2.959,2.959,0,0,1,1,.2,3.329,3.329,0,0,1,.6.3c.1-.1.2-.2.2-.3a.6.6,0,0,0,.1-.4,1.02,1.02,0,0,0-.5-.8A9.91,9.91,0,0,0,24.7,96.3Z"/><path class="b" d="M52.9,97.7a3.553,3.553,0,0,0-1,.2,2.177,2.177,0,0,0-.8.5,5.546,5.546,0,0,0-.6.8,4.3,4.3,0,0,0-.2,1.2,5.066,5.066,0,0,0,.2,1.3,2.034,2.034,0,0,0,.6.9,4.053,4.053,0,0,0,.9.5,4.355,4.355,0,0,0,2,.1,1.445,1.445,0,0,0,.7-.2.67.67,0,0,0,.4-.7.6.6,0,0,0-.1-.4c-.1-.1-.1-.2-.2-.2a1.421,1.421,0,0,1-.6.2,2.239,2.239,0,0,1-1.8-.1,1.167,1.167,0,0,1-.6-.6v-.1l2.9-.4a.684.684,0,0,0,.7-.7,2.92,2.92,0,0,0-.2-.9,1.794,1.794,0,0,0-.5-.7,2.177,2.177,0,0,0-.8-.5A1.645,1.645,0,0,0,52.9,97.7Zm-1.1,2.4v-.2a.6.6,0,0,1,.1-.4.758.758,0,0,1,.2-.4,1.381,1.381,0,0,1,.4-.3.749.749,0,0,1,.5-.1.908.908,0,0,1,.7.3,1.332,1.332,0,0,1,.3.5v.1Z"/><path class="b" d="M56.5,103.1H60c.2,0,.3,0,.4-.1a.749.749,0,0,0,.1-.5.6.6,0,0,0-.1-.4.349.349,0,0,0-.1-.2H58l2-2.5a.758.758,0,0,0,.2-.4.6.6,0,0,0,.1-.4c0-.2,0-.3-.1-.4s-.1-.2-.2-.3H56.6c-.2,0-.3,0-.4.1a.749.749,0,0,0-.1.5.6.6,0,0,0,.1.4.349.349,0,0,0,.1.2h2.2l-2.1,2.5a.758.758,0,0,0-.2.4.6.6,0,0,0-.1.4c0,.2,0,.3.1.4Z"/><path class="b" d="M63.2,98.9a2,2,0,0,1,.9.2.6.6,0,0,1,.3.6v.2l-1.5.2a2.226,2.226,0,0,0-1.3.5,1.366,1.366,0,0,0-.4,1.1,2.353,2.353,0,0,0,.2.8,1.205,1.205,0,0,0,.5.5,1.909,1.909,0,0,0,.8.3,3.083,3.083,0,0,0,1,.1,3.361,3.361,0,0,0,1.9-.4c.1-.1.3-.2.3-.3.1-.1.1-.2.1-.4V99.8a2.92,2.92,0,0,0-.2-.9,2.651,2.651,0,0,0-.5-.6,2.01,2.01,0,0,0-.8-.4,5.568,5.568,0,0,0-1.9-.1,1.445,1.445,0,0,0-.7.2,1.38,1.38,0,0,0-.4.3c-.1.1-.1.2-.1.4a.6.6,0,0,0,.1.4.215.215,0,0,0,.2.2,6.373,6.373,0,0,1,.7-.2A1.078,1.078,0,0,1,63.2,98.9Zm.4,3.2a1.445,1.445,0,0,1-.7-.2.764.764,0,0,1-.2-.5c0-.2.1-.4.3-.4.1-.1.3-.1.6-.2l.9-.1v1.1h-.1c-.1.1-.2.1-.4.1C63.8,102.1,63.7,102.1,63.6,102.1Z"/><path class="b" d="M71.6,97.7a3.6,3.6,0,0,0-1.1.2,4.053,4.053,0,0,0-.9.5,3.49,3.49,0,0,0-.6.9,4,4,0,0,0,0,2.5,2.361,2.361,0,0,0,.6.9,7.017,7.017,0,0,0,.9.6,5.019,5.019,0,0,0,1.2.2,3.6,3.6,0,0,0,1.1-.2,2.01,2.01,0,0,0,.8-.4.812.812,0,0,0,.4-.8V96.7c0-.2,0-.3-.1-.4a.215.215,0,0,0-.2-.2.367.367,0,0,0-.3-.1H72.3v1.9l-.2-.1c-.1,0-.2-.1-.3-.1Zm.2,4.3a1.284,1.284,0,0,1-1-.4,1.8,1.8,0,0,1-.3-1.1,1.594,1.594,0,0,1,.4-1.2,1.159,1.159,0,0,1,1-.4,1.421,1.421,0,0,1,.6.2h.1v2.6h0c-.1.1-.2.1-.3.2A.9.9,0,0,1,71.8,102Z"/><path class="b" d="M77.7,97.7a3.553,3.553,0,0,0-1,.2,2.177,2.177,0,0,0-.8.5,5.547,5.547,0,0,0-.6.8,4.3,4.3,0,0,0-.2,1.2,5.067,5.067,0,0,0,.2,1.3,2.034,2.034,0,0,0,.6.9,4.053,4.053,0,0,0,.9.5,4.355,4.355,0,0,0,2,.1,1.445,1.445,0,0,0,.7-.2.67.67,0,0,0,.4-.7.6.6,0,0,0-.1-.4c-.1-.1-.1-.2-.2-.2a1.421,1.421,0,0,1-.6.2,2.239,2.239,0,0,1-1.8-.1,1.167,1.167,0,0,1-.6-.6v-.1l2.9-.4a.684.684,0,0,0,.7-.7,2.92,2.92,0,0,0-.2-.9,1.794,1.794,0,0,0-.5-.7,2.177,2.177,0,0,0-.8-.5A1.644,1.644,0,0,0,77.7,97.7Zm-1.1,2.4v-.2a.6.6,0,0,1,.1-.4.758.758,0,0,1,.2-.4,1.381,1.381,0,0,1,.4-.3.749.749,0,0,1,.5-.1.908.908,0,0,1,.7.3,1.332,1.332,0,0,1,.3.5v.1Z"/><path class="b" d="M88.5,98.6h.3v1.8a16.951,16.951,0,0,0,.1,2.2.764.764,0,0,0,.2.5,1.268,1.268,0,0,0,.6.1h.5c.1,0,.2-.1.3-.1v-.7a4.485,4.485,0,0,0-.1-1.1l-.1-1.3c0-.4-.1-.9-.1-1.3s-.1-.7-.1-1.1c0-.3-.1-.5-.1-.7s-.1-.3-.3-.4a1.884,1.884,0,0,0-.8-.2.749.749,0,0,0-.5.1c-.1,0-.3.1-.4.1a12.129,12.129,0,0,1-.5,1.4,12.09,12.09,0,0,0-.5,1.8v.1h-.2l-.2-.8c-.1-.2-.1-.5-.2-.7a1.854,1.854,0,0,1-.2-.7c-.1-.2-.1-.4-.2-.6a.7.7,0,0,0-.4-.5,1.7,1.7,0,0,0-1.6,0q-.3.15-.3.3l-.3,5.8a.764.764,0,0,0,.2.5,1.483,1.483,0,0,0,.7.1h.4a.367.367,0,0,0,.3-.1V98.5h.3v.1c.1.3.2.7.3,1.1s.3,1,.5,1.6q0,.15.3.3a1.268,1.268,0,0,0,.6.1.9.9,0,0,0,.5-.1c.1,0,.2-.1.3-.2.2-.7.4-1.2.5-1.7a5.159,5.159,0,0,1,.2-1.1Z"/><path class="b" d="M94,97.7a3.553,3.553,0,0,0-1,.2,2.177,2.177,0,0,0-.8.5,5.547,5.547,0,0,0-.6.8,4.3,4.3,0,0,0-.2,1.2,5.067,5.067,0,0,0,.2,1.3,2.034,2.034,0,0,0,.6.9,4.053,4.053,0,0,0,.9.5,4.355,4.355,0,0,0,2,.1,1.445,1.445,0,0,0,.7-.2.67.67,0,0,0,.4-.7.6.6,0,0,0-.1-.4c-.1-.1-.1-.2-.2-.2a1.421,1.421,0,0,1-.6.2,2.239,2.239,0,0,1-1.8-.1,1.167,1.167,0,0,1-.6-.6v-.1l2.9-.4a.684.684,0,0,0,.7-.7,2.92,2.92,0,0,0-.2-.9,1.794,1.794,0,0,0-.5-.7,2.177,2.177,0,0,0-.8-.5A1.644,1.644,0,0,0,94,97.7Zm-1.2,2.4v-.2a.6.6,0,0,1,.1-.4.758.758,0,0,1,.2-.4,1.381,1.381,0,0,1,.4-.3.749.749,0,0,1,.5-.1.908.908,0,0,1,.7.3,1.332,1.332,0,0,1,.3.5v.1Zm1.4-5.2L92.8,96l-.2.2c0,.1-.1.1-.1.2a.52.52,0,0,0,.2.4.758.758,0,0,0,.4.2l1.4-.8a1,1,0,0,0,.5-.4c.1-.1.1-.2.1-.4s-.1-.3-.2-.5C94.8,95,94.6,94.9,94.2,94.9Z"/><path class="b" d="M99.5,101.4l.7,1a2.651,2.651,0,0,0,.5.6.845.845,0,0,0,.6.2,1.421,1.421,0,0,0,.6-.2c.2-.1.2-.3.3-.6l-1.5-2,.8-.9.3-.4c.1-.1.1-.2.2-.3,0-.1.1-.1.1-.2v-.2a.55.55,0,0,0-.3-.5,1.884,1.884,0,0,0-.8-.2l-1.2,1.7L99,98.3c-.2-.2-.3-.4-.4-.5a.749.749,0,0,0-.5-.1,1.421,1.421,0,0,0-.6.2,3.33,3.33,0,0,0-.3.6l1.5,1.8-.9,1.1a2.092,2.092,0,0,0-.4.6.6.6,0,0,0-.1.4.764.764,0,0,0,.2.5,1.549,1.549,0,0,0,.8.2h.2Z"/><path class="b" d="M102.9,97.9v4.5c0,.2,0,.3.1.4a.215.215,0,0,0,.2.2.367.367,0,0,0,.3.1h1.2V98.6c0-.2,0-.3-.1-.4a.215.215,0,0,0-.2-.2.367.367,0,0,0-.3-.1h-1.2Z"/><path class="b" d="M103.7,95.3a.6.6,0,0,0-.6.3.735.735,0,0,0-.2.6.845.845,0,0,0,.2.6.967.967,0,0,0,1.4,0,.735.735,0,0,0,.2-.6.845.845,0,0,0-.2-.6A1.33,1.33,0,0,0,103.7,95.3Z"/><path class="b" d="M108.3,97.7a4.253,4.253,0,0,0-1.1.2,4.053,4.053,0,0,0-.9.5,1.456,1.456,0,0,0-.6.9,2.745,2.745,0,0,0-.2,1.3,3.6,3.6,0,0,0,.2,1.1,2.361,2.361,0,0,0,.6.9l.9.6a5.019,5.019,0,0,0,1.2.2,2.676,2.676,0,0,0,1.1-.2.675.675,0,0,0,.4-.6c0-.2,0-.3-.1-.4s-.1-.2-.2-.3c-.1.1-.2.1-.4.1a1.268,1.268,0,0,1-.6.1,1.159,1.159,0,0,1-1-.4,1.366,1.366,0,0,1-.4-1.1,1.483,1.483,0,0,1,.1-.7c.1-.2.2-.3.3-.5a2.186,2.186,0,0,1,.5-.3,2.438,2.438,0,0,1,1.2,0c.1,0,.3.1.4.1l.2-.2a.367.367,0,0,0,.1-.3.755.755,0,0,0-.4-.7A2.768,2.768,0,0,0,108.3,97.7Z"/><path class="b" d="M113.3,97.7a3.6,3.6,0,0,0-1.1.2,2.361,2.361,0,0,0-.9.6,3.49,3.49,0,0,0-.6.9,3.73,3.73,0,0,0-.2,1.2,5.019,5.019,0,0,0,.2,1.2,2.361,2.361,0,0,0,.6.9,3.49,3.49,0,0,0,.9.6,3.125,3.125,0,0,0,2.2,0,4.053,4.053,0,0,0,.9-.5,3.49,3.49,0,0,0,.6-.9,3.7,3.7,0,0,0,0-2.4,2.361,2.361,0,0,0-.6-.9,3.49,3.49,0,0,0-.9-.6A1.548,1.548,0,0,0,113.3,97.7Zm0,4.3a.909.909,0,0,1-.8-.4,1.8,1.8,0,0,1-.3-1.1,1.609,1.609,0,0,1,.3-1.1,1,1,0,0,1,1.6,0,1.8,1.8,0,0,1,.3,1.1,1.609,1.609,0,0,1-.3,1.1A.909.909,0,0,1,113.3,102Z"/><path class="b" d="M51.6,82.7c0,2.8-1.3,3.8-2.9,4.7a26.17,26.17,0,0,1-11.8,2.5c-14.9,0-21.7-9.1-21.7-19.7,0-12,8.8-20.4,21.8-20.4,5.2,0,9.9,1.2,12.1,4.2a5.284,5.284,0,0,1-1.9,7.4A19.023,19.023,0,0,0,38,58.6c-9.9,0-11.5,7.6-11.5,11.4,0,6.2,3,9.3,6.5,10.5a10.5,10.5,0,0,0,8.1-.2V74.4H34.4a9.567,9.567,0,0,1-1-5.4A3.315,3.315,0,0,1,37,65.9H47.6a3.714,3.714,0,0,1,4,4Z"/><path class="b" d="M123.6,69.9a20.3,20.3,0,1,1-20.3-20.2A20.229,20.229,0,0,1,123.6,69.9ZM103.4,61a9,9,0,1,0,9.1,9A9.048,9.048,0,0,0,103.4,61Z"/><path class="b" d="M62.8,89.2c2.6.6,6.5,1,8.8,0,1.4-.6,2.2-2,2.2-4.4V59.5h7.6c4.4,0,4.4-5.1,4.1-9H56.7c-4.6,0-5.2,4.4-4.6,9H62.8V89.2Z"/><path class="d" d="M62.8,89.2c2.6.6,6.5,1,8.8,0,1.4-.6,2.2-2,2.2-4.4V83.2c-3,0-9.6-4.2-11-8.5V89.2Z"/><path class="e" d="M17.9,59.6a20.379,20.379,0,0,0-2.7,10.6c0,10.6,6.7,19.7,21.7,19.7a26.17,26.17,0,0,0,11.8-2.5,3.508,3.508,0,0,0,.8-.5A36.391,36.391,0,0,1,17.9,59.6Z"/><path class="f" d="M112.2,72.3c1.3-5.9-2.4-10.9-8.8-11.3,5.4-3.4,16.7,0,18.5,8.9.8,3.9.5,7.4-.4,9.2a20.3,20.3,0,0,1-30.8,6.5C102.3,85.6,110.6,79.6,112.2,72.3Z"/><path class="g" d="M85.5,50.6H56.7c-4.6,0-5.2,4.4-4.6,9H62.8V74.8c1.4,4.2,8,8.5,11,8.5V59.7h7.6C85.8,59.6,85.9,54.5,85.5,50.6Z"/><path class="h" d="M51.6,82.7V69.8a3.663,3.663,0,0,0-4-4H37a3.315,3.315,0,0,0-3.6,3.1,8.963,8.963,0,0,0,1,5.4h6.7v5.9a10.99,10.99,0,0,1-8.1.2c-3.4-1.2-6.5-4.3-6.5-10.5,0-3.7,1.6-11.4,11.5-11.4a18.4,18.4,0,0,1,9.2,2.8,5.284,5.284,0,0,0,1.9-7.4c-2.2-3-6.9-4.2-12.1-4.2-8.7,0-15.5,3.7-19.1,9.8A36.16,36.16,0,0,0,49.4,86.8C50.7,86.1,51.6,85,51.6,82.7Z"/><path class="i" d="M112.2,72.3v-.1a9.15,9.15,0,0,1-8.9,6.8,9,9,0,1,1,0-18c5.4-3.4,16.7,0,18.5,8.9.8,3.8.5,7.2-.4,9.1a19.728,19.728,0,0,0,2.2-9.1A20.3,20.3,0,1,0,90.5,85.6C102.3,85.6,110.6,79.6,112.2,72.3Z"/></g></svg>