<svg xmlns="http://www.w3.org/2000/svg" viewBox="525.4 1355.4 28.8 31"><defs><style>.a{fill:#fff;}</style></defs><g transform="translate(96 1334)"><path class="a" d="M447.4,40.6h1a.472.472,0,0,1,.5.5h1a1.473,1.473,0,0,0-1.5-1.5v-.5h-1v.5a1.5,1.5,0,0,0,0,3h1a.5.5,0,0,1,0,1h-1a.472.472,0,0,1-.5-.5h-1a1.473,1.473,0,0,0,1.5,1.5v.5h1v-.5a1.473,1.473,0,0,0,1.5-1.5,1.538,1.538,0,0,0-1.5-1.5h-1a.472.472,0,0,1-.5-.5.536.536,0,0,1,.5-.5Zm0,0"/><path class="a" d="M447.9,37a5.2,5.2,0,1,0,5.2,5.2,5.228,5.228,0,0,0-5.2-5.2Zm0,9.3a4.1,4.1,0,1,1,4.1-4.1,4.055,4.055,0,0,1-4.1,4.1Zm0,0"/><path class="a" d="M457.8,40.1l-2.2-.3c-.2,0-.3-.2-.4-.3-.1-.2-.1-.3-.2-.5s-.1-.4.1-.5l1.3-1.8c.2-.2.1-.5,0-.7l-2.2-2.2a.483.483,0,0,0-.7,0l-1.8,1.3a1.087,1.087,0,0,1-.5.1c-.2-.1-.3-.1-.5-.2s-.3-.2-.3-.4l-.3-2.2c0-.3-.3-.4-.5-.4H447a6.683,6.683,0,0,0-3.1-1V29.9h.5a2.647,2.647,0,0,0,2.6-2.6V22a.472.472,0,0,0-.5-.5,3.606,3.606,0,0,0-2,.6,1.792,1.792,0,0,1-1.4.4,1.872,1.872,0,0,1-1.4-.5,3.469,3.469,0,0,0-3.9,0,2.389,2.389,0,0,1-1.4.5,2.3,2.3,0,0,1-1.4-.4,3.606,3.606,0,0,0-2-.6.472.472,0,0,0-.5.5v5.2a2.647,2.647,0,0,0,2.6,2.6h.5v1.1a6.746,6.746,0,0,0-6.2,6.7v7.2a4.588,4.588,0,0,0,4.6,4.6h6.6l1.2,1.2a.483.483,0,0,0,.7,0l1.7-1.3h.1a1.087,1.087,0,0,1,.5-.1h.1c.1,0,.2.1.3.1s.1,0,.2.1c.2.1.3.2.3.4L446,52c0,.3.3.4.5.4h3.1a.458.458,0,0,0,.5-.4l.3-2.2c0-.2.2-.3.3-.4.2-.1.3-.1.5-.2s.4-.1.5.1l1.8,1.3c.2.2.5.1.7,0l2.2-2.2a.483.483,0,0,0,0-.7l-1.3-1.8a.749.749,0,0,1-.1-.5h0c.1-.2.1-.3.2-.5s.2-.3.4-.3l2.2-.3c.3,0,.4-.3.4-.5V40.7a.675.675,0,0,0-.4-.6ZM433.4,27.2V22.6a3.552,3.552,0,0,1,.9.4,3.633,3.633,0,0,0,4,0,2.4,2.4,0,0,1,2.8,0,3.633,3.633,0,0,0,4,0,3.552,3.552,0,0,1,.9-.4v4.6a1.473,1.473,0,0,1-1.5,1.5h-1l.4-3.6-1-.1-.5,3.7h-2.1V25.1h-1v3.6H437l-.5-3.7-1,.1.4,3.6h-1a1.473,1.473,0,0,1-1.5-1.5Zm9.3,2.6v1h-6.2v-1ZM434,48.4a3.585,3.585,0,0,1-3.6-3.6V37.6a5.7,5.7,0,0,1,5.7-5.7h7.2a5.835,5.835,0,0,1,2.6.6l-.3,2.1c0,.2-.2.3-.3.4-.2.1-.3.1-.5.2s-.4.1-.5-.1l-1.8-1.3c-.2-.2-.5-.1-.7,0L439.6,36a.483.483,0,0,0,0,.7l1.3,1.8a1.087,1.087,0,0,1,.1.5c-.1.2-.1.3-.2.5s-.2.3-.4.3l-2.2.3c-.3,0-.4.3-.4.5v3.1a.458.458,0,0,0,.4.5l2.2.3c.2,0,.3.2.4.3.1.2.1.3.2.5s.1.4-.1.5l-1.3,1.8a.349.349,0,0,0-.1.2v.5a.1.1,0,0,0,.1.1H434Zm23.2-5.1-1.8.3a1.549,1.549,0,0,0-1.2,1c-.1.2-.1.3-.2.5a1.566,1.566,0,0,0,.2,1.6l1.1,1.4-1.6,1.6-1.4-1.1a1.755,1.755,0,0,0-1.6-.2c-.1.1-.3.1-.5.2a1.722,1.722,0,0,0-1,1.2l-.3,1.8h-2.2l-.3-1.8a1.549,1.549,0,0,0-1-1.2.1.1,0,0,1-.1-.1.349.349,0,0,1-.2-.1h0a1.369,1.369,0,0,0-1.5.2h-.1l-1.4,1.1-1.6-1.6,1.1-1.4a1.755,1.755,0,0,0,.2-1.6c-.1-.1-.1-.3-.2-.5a1.722,1.722,0,0,0-1.2-1l-1.8-.3V41.1l1.8-.3a1.549,1.549,0,0,0,1.2-1c.1-.2.1-.3.2-.4a1.566,1.566,0,0,0-.2-1.6l-1.1-1.4,1.6-1.6,1.4,1.1a1.755,1.755,0,0,0,1.6.2c.1-.1.3-.1.5-.2a1.722,1.722,0,0,0,1-1.2l.3-1.8h2.2l.3,1.8a1.549,1.549,0,0,0,1,1.2c.2.1.3.1.4.2a1.566,1.566,0,0,0,1.6-.2l1.4-1.1,1.6,1.6-1.1,1.4a1.755,1.755,0,0,0-.2,1.6c.1.1.1.3.2.5a1.722,1.722,0,0,0,1.2,1l1.8.3Zm0,0"/></g></svg>