<svg xmlns="http://www.w3.org/2000/svg" viewBox="929.3 1352.3 28.9 29.1"><defs><style>.a{fill:#fff;}</style></defs><g transform="translate(96 1334)"><path class="a" d="M861.4,32.8H860V30.4a.576.576,0,0,0-.6-.6h-3.8a8.263,8.263,0,0,0-2.6-4.4,7.659,7.659,0,0,0-4.7-2v-.8h3.9a.576.576,0,0,0,.6-.6V18.9a.576.576,0,0,0-.6-.6h-4.6a.576.576,0,0,0-.6.6v4.5a7.659,7.659,0,0,0-4.7,2,8.652,8.652,0,0,0-2.6,4.4h-3.8a.576.576,0,0,0-.6.6v2.4h-1.4a.576.576,0,0,0-.6.6V46.8a.576.576,0,0,0,.6.6h27.7a.576.576,0,0,0,.6-.6V33.4c-.2-.3-.5-.6-.8-.6ZM848.1,20.4v-.9h3.3v1.8h-3.3Zm-.6,4.1a6.846,6.846,0,0,1,6.6,5.2H840.8a7.052,7.052,0,0,1,6.7-5.2ZM836.4,31h22.3v1.8H836.4ZM849,46.2h-3V41.4h2.9v4.8Zm11.7,0H853V38a.6.6,0,1,0-1.2,0v8.2h-1.4V40.7a.576.576,0,0,0-.6-.6h-4.2a.576.576,0,0,0-.6.6v5.5h-1.4V38a.6.6,0,1,0-1.2,0v8.2h-7.7V34.1h26.4V46.2Zm0,0"/><path class="a" d="M853,35.7v-.1a.1.1,0,0,0-.1-.1l-.1-.1-.1-.1a.1.1,0,0,1-.1-.1h-.5a.1.1,0,0,0-.1.1l-.1.1-.1.1a.1.1,0,0,1-.1.1V36a.1.1,0,0,0,.1.1l.1.1.1.1a.1.1,0,0,1,.1.1h.4a.1.1,0,0,0,.1-.1l.1-.1.1-.1a.1.1,0,0,1,.1-.1v-.2c.1,0,.1,0,.1-.1Zm0,0"/><path class="a" d="M843.3,35.7v-.1a.1.1,0,0,0-.1-.1l-.1-.1-.1-.1a.1.1,0,0,1-.1-.1h-.5a.1.1,0,0,0-.1.1l-.1.1-.1.1a.1.1,0,0,1-.1.1v.2c0,.2.1.3.2.5l.1.1a.1.1,0,0,1,.1.1h.4a.1.1,0,0,0,.1-.1l.1-.1a.764.764,0,0,0,.2-.5c.1,0,.1,0,.1-.1Zm0,0"/><path class="a" d="M840.2,35.1h-3.6a.576.576,0,0,0-.6.6v2.8a.576.576,0,0,0,.6.6h3.6a.576.576,0,0,0,.6-.6V35.7c.1-.4-.2-.6-.6-.6Zm-.6,2.7h-2.4V36.3h2.4Zm0,0"/><path class="a" d="M840.2,40.8h-3.6a.576.576,0,0,0-.6.6v2.8a.576.576,0,0,0,.6.6h3.6a.576.576,0,0,0,.6-.6V41.4c.1-.3-.2-.6-.6-.6Zm-.6,2.8h-2.4V42.1h2.4Zm0,0"/><path class="a" d="M849.3,35.1h-3.6a.576.576,0,0,0-.6.6v2.8a.576.576,0,0,0,.6.6h3.6a.576.576,0,0,0,.6-.6V35.7c.1-.4-.2-.6-.6-.6Zm-.6,2.7h-2.4V36.3h2.4Zm0,0"/><path class="a" d="M858.4,35.1h-3.6a.576.576,0,0,0-.6.6v2.8a.576.576,0,0,0,.6.6h3.6a.576.576,0,0,0,.6-.6V35.7c.1-.4-.2-.6-.6-.6Zm-.6,2.7h-2.4V36.3h2.4Zm0,0"/><path class="a" d="M858.4,40.8h-3.6a.576.576,0,0,0-.6.6v2.8a.576.576,0,0,0,.6.6h3.6a.576.576,0,0,0,.6-.6V41.4c.1-.3-.2-.6-.6-.6Zm-.6,2.8h-2.4V42.1h2.4Zm0,0"/></g></svg>