<svg xmlns="http://www.w3.org/2000/svg" viewBox="124.9 1355.6 28.1 28"><defs><style>.a{fill:#fff;}</style></defs><g transform="translate(96 1334)"><path class="a" d="M55.8,34.1H54.2V31.2a1.324,1.324,0,0,0-1.3-1.3H51.4V28.8l-.2-.2-3.4-3.4-3.6-3.6H32.7v5.1H30.2A1.324,1.324,0,0,0,28.9,28V48.4h0a1.445,1.445,0,0,0,.2.7,1.231,1.231,0,0,0,1,.5H51a1.206,1.206,0,0,0,1.1-.8L57,35.6v-.1a1.272,1.272,0,0,0-1.2-1.4Zm-2.9-3.3a.319.319,0,0,1,.3.3V34H51.3V30.7h1.6Zm-8.5-7.7,5.4,5.4H44.4Zm-10.7-.7h9.8v7h7v4.7H34.7a1.075,1.075,0,0,0-.9.8l-.1.4Zm-3.8,5.5a.319.319,0,0,1,.3-.3h2.5V37.9l-2.8,7.6V27.9ZM51.3,48.4c0,.1-.1.2-.3.2H30.2a.354.354,0,0,1-.3-.3l2.8-7.7h0l1.9-5.3h0c0-.1.1-.2.3-.2H55.8c.2,0,.2.3.2.4Zm0,0"/><path class="a" d="M36.5,29.4h4.7a.5.5,0,0,0,0-1H36.5a.5.5,0,0,0,0,1Zm0,0"/><path class="a" d="M36.5,26.2h4.7a.5.5,0,0,0,0-1H36.5a.5.5,0,0,0,0,1Zm0,0"/><path class="a" d="M36.5,32.7H47.7a.5.5,0,0,0,0-1H36.5a.5.5,0,0,0,0,1Zm0,0"/></g></svg>